<svg width="107" height="20" viewBox="0 0 107 20" fill="none" xmlns="http://www.w3.org/2000/svg">
<g clip-path="url(#clip0_988_5856)">
<path d="M20.1113 0H0.111328V20H20.1113V0Z" fill="#219653"/>
<path d="M41.7778 0H21.7778V20H41.7778V0Z" fill="#219653"/>
<path d="M63.4448 0H43.4448V20H63.4448V0Z" fill="#219653"/>
<path d="M85.1113 0H65.1113V20H85.1113V0Z" fill="#219653"/>
<path d="M106.778 0H86.7778V20H106.778V0Z" fill="#219653"/>
<path d="M10.1108 13.479L13.1525 12.7082L14.4233 16.6249L10.1108 13.479ZM17.1108 8.41653H11.7567L10.1108 3.37486L8.46501 8.41653H3.11084L7.44417 11.5415L5.79834 16.5832L10.1317 13.4582L12.7983 11.5415L17.1108 8.41653Z" fill="white"/>
<path d="M31.7778 13.479L34.8195 12.7082L36.0903 16.6249L31.7778 13.479ZM38.7778 8.41653H33.4237L31.7778 3.37486L30.132 8.41653H24.7778L29.1112 11.5415L27.4653 16.5832L31.7987 13.4582L34.4653 11.5415L38.7778 8.41653Z" fill="white"/>
<path d="M53.4443 13.479L56.486 12.7082L57.7568 16.6249L53.4443 13.479ZM60.4443 8.41653H55.0902L53.4443 3.37486L51.7985 8.41653H46.4443L50.7777 11.5415L49.1318 16.5832L53.4652 13.4582L56.1318 11.5415L60.4443 8.41653Z" fill="white"/>
<path d="M75.1108 13.479L78.1525 12.7082L79.4233 16.6249L75.1108 13.479ZM82.1108 8.41653H76.7567L75.1108 3.37486L73.465 8.41653H68.1108L72.4442 11.5415L70.7983 16.5832L75.1317 13.4582L77.7983 11.5415L82.1108 8.41653Z" fill="white"/>
<path d="M96.7778 13.479L99.8195 12.7082L101.09 16.6249L96.7778 13.479ZM103.778 8.41653H98.4237L96.7778 3.37486L95.132 8.41653H89.7778L94.1112 11.5415L92.4653 16.5832L96.7987 13.4582L99.4653 11.5415L103.778 8.41653Z" fill="white"/>
</g>
<defs>
<clipPath id="clip0_988_5856">
<rect width="106.667" height="20" fill="white" transform="translate(0.111328)"/>
</clipPath>
</defs>
</svg>
