<svg width="64" height="64" viewBox="0 0 64 64" fill="none" xmlns="http://www.w3.org/2000/svg">
<path d="M33.7407 55.392H13.4719C9.2735 55.392 5.8623 51.9808 5.8623 47.7824V13.344C5.8623 9.14558 9.2735 5.73438 13.4719 5.73438H40.6847C44.8831 5.73438 48.2943 9.14558 48.2943 13.344V28.7168C48.2943 29.1776 47.9231 29.5488 47.4623 29.5488C47.0015 29.5488 46.6303 29.1776 46.6303 28.7168V13.344C46.6303 10.0672 43.9615 7.39838 40.6847 7.39838H13.4719C10.1951 7.39838 7.52631 10.0672 7.52631 13.344V47.7824C7.52631 51.0592 10.1951 53.728 13.4719 53.728H33.7407C34.2015 53.728 34.5727 54.0992 34.5727 54.56C34.5727 55.0208 34.2015 55.392 33.7407 55.392Z" fill="black"/>
<path d="M44.5888 58.2656C40.512 58.2656 36.4992 55.072 33.8432 49.7216C33.6384 49.312 33.8048 48.8128 34.2208 48.608C34.6304 48.4032 35.1296 48.5696 35.3344 48.9856C37.7024 53.7536 41.1584 56.6016 44.5888 56.6016C48.7936 56.6016 53.0496 52.2176 55.1872 45.6896C56.032 43.1168 56.4736 40.384 56.4736 37.792V34.8352C56.4736 33.3376 55.2576 32.1216 53.76 32.1216H35.4176C33.92 32.1216 32.704 33.3376 32.704 34.8352V37.792C32.704 39.776 32.96 41.8112 33.4592 43.8272C33.568 44.2752 33.2992 44.7232 32.8512 44.832C32.4032 44.9408 31.9552 44.672 31.8464 44.224C31.3152 42.0736 31.0464 39.904 31.0464 37.7856V34.8288C31.0464 32.416 33.0112 30.4512 35.424 30.4512H53.7664C56.1792 30.4512 58.144 32.416 58.144 34.8288V37.7856C58.144 40.5504 57.6704 43.4624 56.7744 46.1952C54.3744 53.5168 49.6 58.2528 44.5952 58.2528L44.5888 58.2656Z" fill="black"/>
<path d="M48.7103 41.2224H46.1759V38.688C46.1759 37.8112 45.4655 37.1008 44.5887 37.1008C43.7119 37.1008 43.0015 37.8112 43.0015 38.688V41.2224H40.4671C39.5903 41.2224 38.8799 41.9328 38.8799 42.8096C38.8799 43.6864 39.5903 44.3968 40.4671 44.3968H43.0015V46.9312C43.0015 47.808 43.7119 48.5184 44.5887 48.5184C45.4655 48.5184 46.1759 47.808 46.1759 46.9312V44.3968H48.7103C49.5871 44.3968 50.2975 43.6864 50.2975 42.8096C50.2975 41.9328 49.5871 41.2224 48.7103 41.2224Z" fill="black"/>
<path d="M17.0499 22.9503C16.8451 22.9503 16.6467 22.8735 16.4931 22.7327L13.6643 20.1791C13.3251 19.8719 13.2995 19.3471 13.6067 19.0079C13.9139 18.6687 14.4387 18.6431 14.7779 18.9503L16.9859 20.9471L22.5411 14.7135C22.8483 14.3679 23.3731 14.3423 23.7123 14.6431C24.0579 14.9503 24.0835 15.4751 23.7827 15.8143L17.6707 22.6751C17.5235 22.8415 17.3187 22.9375 17.0947 22.9503C17.0819 22.9503 17.0627 22.9503 17.0499 22.9503Z" fill="black"/>
<path d="M17.0499 34.2464C16.8451 34.2464 16.6467 34.1696 16.4931 34.0288L13.6643 31.4753C13.3251 31.1681 13.2995 30.6432 13.6067 30.304C13.9139 29.9648 14.4387 29.9328 14.7779 30.2464L16.9859 32.2433L22.5411 26.0096C22.8483 25.664 23.3731 25.6384 23.7123 25.9392C24.0579 26.2464 24.0835 26.7713 23.7827 27.1105L17.6707 33.9713C17.5235 34.1377 17.3187 34.2336 17.0947 34.2464C17.0819 34.2464 17.0627 34.2464 17.0499 34.2464Z" fill="black"/>
<path d="M17.0499 45.5487C16.8451 45.5487 16.6467 45.4719 16.4931 45.3311L13.6643 42.7775C13.3251 42.4703 13.2995 41.9455 13.6067 41.6063C13.9139 41.2671 14.4387 41.2351 14.7779 41.5487L16.9859 43.5455L22.5411 37.3119C22.8483 36.9663 23.3731 36.9407 23.7123 37.2415C24.0579 37.5487 24.0835 38.0735 23.7827 38.4127L17.6707 45.2735C17.5235 45.4399 17.3187 45.5359 17.0947 45.5487C17.0819 45.5487 17.0627 45.5487 17.0499 45.5487Z" fill="black"/>
</svg>
