<svg width="64" height="64" viewBox="0 0 64 64" fill="none" xmlns="http://www.w3.org/2000/svg">
<path d="M20.4736 37.5871C15.8912 37.5871 11.7824 35.1807 8.60163 30.5407C3.98083 23.8079 2.41923 13.5359 5.44643 9.81114C6.02243 9.10074 6.93123 8.71034 8.14723 8.65274C12.672 8.42874 21.1904 12.9727 25.0048 16.8383C30.08 21.9775 31.4944 27.4623 28.9984 32.2815C28.7936 32.6719 28.32 32.8255 27.9296 32.6207C27.5392 32.4159 27.3856 31.9423 27.5904 31.5519C29.7792 27.3343 28.4928 22.6303 23.8784 17.9583C20.3584 14.3935 12.2752 10.0415 8.22403 10.2399C7.47523 10.2783 6.95683 10.4703 6.67523 10.8159C4.36483 13.6639 5.42083 23.1039 9.90723 29.6447C14.7328 36.6847 20.512 36.6271 24.5056 35.3343C24.9216 35.1999 25.3696 35.4303 25.504 35.8463C25.6384 36.2623 25.408 36.7103 24.992 36.8447C23.4432 37.3439 21.9328 37.5935 20.4672 37.5935L20.4736 37.5871Z" fill="black"/>
<path d="M27.8848 55.3535C27.8464 55.3535 27.808 55.3535 27.7632 55.3471C27.328 55.2831 27.0336 54.8735 27.0976 54.4447C29.4208 39.1167 17.056 25.5935 16.928 25.4591C16.6272 25.1391 16.6464 24.6335 16.9664 24.3391C17.2864 24.0383 17.792 24.0575 18.0864 24.3775C18.6176 24.9471 31.104 38.5791 28.6592 54.6815C28.6016 55.0719 28.2624 55.3535 27.8784 55.3535H27.8848Z" fill="black"/>
<path d="M43.4859 45.2225C40.8043 45.2225 38.2635 44.2177 36.0235 42.2145C35.6971 41.9201 35.6651 41.4209 35.9595 41.0945C36.2539 40.7681 36.7531 40.7361 37.0795 41.0305C41.7131 45.1713 46.5963 43.6225 49.8731 41.6001C55.4091 38.1761 59.3451 31.4689 58.5579 28.5825C58.4491 28.1921 58.0075 27.8977 57.6491 27.7185C54.9163 26.3489 47.5563 26.6625 43.3323 28.3265C38.8203 30.1057 36.3051 32.8321 36.0619 36.2049C36.0299 36.6401 35.6459 36.9793 35.2171 36.9409C34.7819 36.9089 34.4491 36.5313 34.4811 36.0961C34.6795 33.2865 36.2795 29.4081 42.7499 26.8545C46.9867 25.1841 54.8971 24.5633 58.3595 26.3041C59.3003 26.7777 59.8763 27.4049 60.0875 28.1729C61.1435 32.0577 56.4907 39.3793 50.7051 42.9569C48.2539 44.4737 45.8091 45.2289 43.4859 45.2289V45.2225Z" fill="black"/>
<path d="M27.9978 55.3537C27.9274 55.3537 27.857 55.3473 27.7866 55.3281C27.3642 55.2129 27.1146 54.7778 27.2298 54.3553C30.7882 41.2929 44.8554 35.1233 45.4506 34.8673C45.8538 34.6945 46.321 34.8801 46.4938 35.2833C46.6666 35.6865 46.481 36.1537 46.0778 36.3265C45.937 36.3841 32.113 42.4577 28.7594 54.7714C28.6634 55.1234 28.3434 55.3537 27.9914 55.3537H27.9978Z" fill="black"/>
</svg>
