<svg width="64" height="64" viewBox="0 0 64 64" fill="none" xmlns="http://www.w3.org/2000/svg">
<path d="M31.9808 56.4544C30.9696 56.4544 29.9648 56 28.928 55.0912C27.776 54.08 26.624 53.0752 25.472 52.0704C23.1424 50.0352 20.8128 48 18.496 45.9456C18.0992 45.5936 18.0608 44.9856 18.4128 44.5888C18.7648 44.192 19.3728 44.1536 19.7696 44.5056C22.08 46.5536 24.4096 48.5888 26.7328 50.6176C27.8848 51.6224 29.0368 52.6336 30.1888 53.6448C31.5328 54.8224 32.4032 54.8224 33.7792 53.6448L35.0272 52.576C37.7024 50.2912 40.4672 47.936 43.1616 45.5872L43.3984 45.376C46.9056 42.3168 50.528 39.1552 53.3568 35.392C57.76 29.5424 58.6176 23.712 55.9808 17.568C54.5088 14.1376 51.6352 11.4496 48.1024 10.208C44.6784 8.99841 40.928 9.2544 37.8112 10.912C35.968 11.8912 34.3552 13.3248 32.7488 15.4176C32.5696 15.648 32.2944 15.7888 32.0064 15.7952C31.7184 15.808 31.4368 15.6736 31.2512 15.4496L30.4448 14.4768C27.872 11.3728 24.352 9.59361 20.544 9.46561C16.7872 9.33761 13.2608 10.8288 10.5664 13.6576C6.48319 17.952 5.36319 25.2032 7.91679 30.8992C9.36319 34.1248 11.584 37.12 14.5152 39.8016C14.9056 40.16 14.9376 40.768 14.5792 41.1584C14.2208 41.5488 13.6128 41.5808 13.2224 41.2224C10.0928 38.368 7.71839 35.1552 6.16319 31.6864C3.26399 25.2032 4.49919 17.248 9.17119 12.3392C12.2496 9.10721 16.2944 7.39841 20.608 7.55201C24.9728 7.69921 28.992 9.728 31.9232 13.2544L31.9808 13.3248C33.5232 11.5008 35.1104 10.1824 36.9152 9.22881C40.5056 7.32801 44.8128 7.02721 48.7424 8.40961C52.7808 9.83681 56.064 12.9024 57.7472 16.8256C60.6336 23.5648 59.6736 30.2016 54.8928 36.5632C51.9424 40.4864 48.2368 43.7184 44.6592 46.8416L44.4224 47.0464C41.7216 49.4016 38.9504 51.7632 36.2752 54.048L35.0272 55.1168C33.984 56.0128 32.9728 56.4608 31.9744 56.4608L31.9808 56.4544Z" fill="black"/>
</svg>
