<svg width="64" height="64" viewBox="0 0 64 64" fill="none" xmlns="http://www.w3.org/2000/svg">
<path d="M27.731 27.6351C27.4366 27.6351 27.1614 27.4623 27.0462 27.1679C26.8926 26.7903 27.0782 26.3615 27.4558 26.2079C30.4126 25.0239 33.4718 24.9663 36.4414 26.0415C36.8254 26.1823 37.0238 26.6047 36.883 26.9887C36.7422 27.3727 36.3198 27.5711 35.9358 27.4303C33.299 26.4767 30.6238 26.5279 27.9998 27.5839C27.9102 27.6223 27.8142 27.6351 27.7246 27.6351H27.731Z" fill="black"/>
<path d="M17.0046 38.6879C16.8958 38.6879 16.787 38.6623 16.6846 38.6111C16.3198 38.4319 16.1662 37.9903 16.339 37.6255C17.3118 35.6159 18.4958 33.7471 19.8718 32.0767C20.1278 31.7631 20.595 31.7119 20.9086 31.9743C21.2222 32.2303 21.267 32.6975 21.011 33.0111C19.7118 34.5919 18.5918 36.3583 17.6702 38.2655C17.5422 38.5279 17.2798 38.6815 17.0046 38.6815V38.6879Z" fill="black"/>
<path d="M32.2046 58.9249C20.4286 58.9249 13.939 54.6689 13.939 46.9441C13.939 45.6961 14.1054 44.3457 14.4382 42.9313C14.5278 42.5345 14.931 42.2913 15.3278 42.3809C15.7246 42.4705 15.9742 42.8737 15.8782 43.2705C15.5774 44.5761 15.4174 45.8113 15.4174 46.9441C15.4174 51.7377 18.3294 57.4465 32.2046 57.4465C46.0798 57.4465 48.9918 51.7377 48.9918 46.9441C48.9918 43.0017 46.2334 36.3073 42.835 32.0129C42.579 31.6929 42.6366 31.2257 42.9566 30.9761C43.2766 30.7201 43.7374 30.7777 43.9934 31.0977C47.6222 35.6865 50.4702 42.6433 50.4702 46.9441C50.4702 54.6689 43.9806 58.9249 32.2046 58.9249Z" fill="black"/>
<path d="M32.4029 50.8033C31.8013 50.8033 31.1997 50.6305 30.7069 50.2849C29.5741 49.4913 29.0493 48.7873 29.0493 48.0833C29.0493 46.6241 30.5213 45.4785 32.4029 45.4785C34.2845 45.4785 35.7565 46.6241 35.7565 48.0833C35.7565 48.7937 35.2317 49.4913 34.0989 50.2849C33.6061 50.6305 33.0045 50.8033 32.4029 50.8033ZM32.4029 46.9505C31.2957 46.9505 30.5277 47.5457 30.5277 48.0769C30.5405 48.1537 30.7645 48.5121 31.5581 49.0689C32.0317 49.4017 32.7741 49.4017 33.2541 49.0689C34.0413 48.5185 34.2589 48.1601 34.2845 48.0641C34.2781 47.5329 33.5101 46.9441 32.4093 46.9441L32.4029 46.9505Z" fill="black"/>
<path d="M43.4176 32.3007C43.264 32.3007 43.1168 32.2559 42.9824 32.1599C42.6496 31.9167 42.5792 31.4559 42.8224 31.1295C43.4304 30.2975 44.0448 29.4591 44.6656 28.6143C49.92 21.4719 55.3536 14.0863 54.4448 9.78553C54.2144 8.68473 53.5552 7.84633 52.448 7.20633C51.2576 6.52793 50.1504 6.38073 49.0624 6.75833C44.9984 8.17273 41.6768 16.4863 38.1568 25.2863L37.4016 27.1743C37.248 27.5519 36.8192 27.7375 36.4416 27.5839C36.064 27.4303 35.8784 27.0015 36.032 26.6239L36.7872 24.7359C40.4352 15.6159 43.8848 7.00153 48.5824 5.36313C50.0736 4.84473 51.6224 5.03033 53.184 5.92633C54.6624 6.77113 55.5776 7.96793 55.8976 9.47833C56.9472 14.4319 51.3088 22.0863 45.8624 29.4911C45.2416 30.3295 44.6272 31.1679 44.0256 31.9999C43.8784 32.1983 43.6544 32.3007 43.4304 32.3007H43.4176Z" fill="black"/>
<path d="M20.8832 32.8577C20.6528 32.8577 20.4288 32.7553 20.288 32.5569C19.712 31.7633 19.1232 30.9633 18.528 30.1569C12.8832 22.4641 7.04001 14.5153 8.11521 9.42728C8.43521 7.92968 9.32481 6.74568 10.7712 5.92008C12.3392 5.02408 13.9072 4.83848 15.4176 5.36328C20.3328 7.07208 23.968 16.1217 27.8144 25.7089L28.1792 26.6177C28.3328 26.9953 28.1472 27.4241 27.7696 27.5777C27.392 27.7313 26.9632 27.5457 26.8096 27.1681L26.4448 26.2593C22.8864 17.4017 19.2128 8.24968 14.9312 6.75848C13.8176 6.37448 12.6976 6.51528 11.5008 7.20008C10.4256 7.81448 9.78561 8.64008 9.55521 9.72808C8.61441 14.1761 14.5088 22.1953 19.712 29.2737C20.3072 30.0801 20.896 30.8865 21.472 31.6801C21.7088 32.0129 21.6384 32.4737 21.312 32.7105C21.1776 32.8065 21.0304 32.8513 20.8768 32.8513L20.8832 32.8577Z" fill="black"/>
</svg>
