<svg width="104" height="18" viewBox="0 0 104 18" fill="none" xmlns="http://www.w3.org/2000/svg">
<path fill-rule="evenodd" clip-rule="evenodd" d="M0 8.84224V17.6846L4.74824 17.6546C8.92591 17.6282 9.559 17.6069 10.0168 17.4774C12.2294 16.8513 13.5255 15.1593 13.5264 12.8961C13.5272 10.938 12.2166 9.10569 10.5088 8.67694L10.1149 8.57811L10.6295 8.39207C11.6663 8.01734 12.5735 7.06314 12.9517 5.9497C13.2054 5.20306 13.197 3.75431 12.9349 3.04615C12.4173 1.64759 11.2867 0.664549 9.66992 0.207634C9.21383 0.0786842 8.5849 0.056837 4.57479 0.030296L0 0V8.84224ZM51.7753 8.84241V17.6752H53.6833H55.5912V14.0055V10.3359H58.8434H62.0957V8.67173V7.00759H58.8434H55.5912V5.17353V3.33956L59.9058 3.31737L64.2204 3.29526L64.244 1.65245L64.2675 0.00964351H58.0215H51.7753V8.84241ZM8.19559 3.49761C8.63824 3.69654 9.07464 4.13741 9.20057 4.51273C9.25459 4.67377 9.28313 5.04697 9.26405 5.34191C9.21739 6.06269 8.91689 6.51654 8.29844 6.79987C7.86377 6.99905 7.78112 7.00597 5.83231 7.00673L3.81593 7.00759V5.17276V3.33793L5.83231 3.33981C7.59805 3.34143 7.89179 3.36106 8.19559 3.49761ZM68.4332 4.70569C65.864 5.236 63.9195 7.08354 63.3138 9.56986C63.072 10.5623 63.0718 12.0697 63.3133 13.0668C63.606 14.2756 64.0865 15.1171 64.9978 16.017C65.6007 16.6125 65.9415 16.8714 66.4753 17.1392C68.2681 18.039 70.279 18.2175 72.4819 17.6724C73.2503 17.4821 74.5621 16.8706 75.0365 16.4812L75.3588 16.2167L74.6057 15.1312L73.8525 14.0457L73.3294 14.3908C72.3485 15.0377 70.8745 15.3727 69.7393 15.2065C68.2208 14.9843 67.1298 14.1184 66.7478 12.8321L66.6148 12.3841H71.4667H76.3187L76.3184 11.808C76.3178 10.3068 75.9371 8.7325 75.3021 7.60497C74.9203 6.92703 73.7706 5.77467 73.1098 5.40762C72.8475 5.26186 72.3206 5.03784 71.939 4.90974C71.3369 4.70765 71.0849 4.67352 70.0311 4.65167C69.3633 4.63785 68.6442 4.66217 68.4332 4.70569ZM82.2958 4.78958C79.9311 5.36213 78.1525 7.09626 77.4779 9.48742C77.2603 10.2584 77.259 12.3663 77.4756 13.1521C77.875 14.6011 78.796 15.9196 79.9806 16.7382C81.2116 17.5889 82.4919 17.9524 84.2541 17.9513C86.246 17.9502 88.0225 17.4079 89.3244 16.4036L89.5382 16.2387L88.7683 15.1262L87.9985 14.0137L87.7408 14.2271C87.1992 14.6755 86.2634 15.0383 85.2214 15.2037C83.931 15.4085 82.5858 15.0211 81.758 14.2062C81.3297 13.7847 80.9594 13.146 80.8623 12.6614L80.8068 12.3841H85.6309H90.455V11.5845C90.455 8.09995 88.648 5.54527 85.6495 4.79069C84.7459 4.56326 83.2325 4.56283 82.2958 4.78958ZM14.658 9.20511C14.6593 13.9831 14.6734 14.138 15.2016 15.1941C15.5557 15.9018 16.3004 16.6874 17.0098 17.1014C18.1207 17.7495 19.7837 18.0835 21.3953 17.9821C24.2849 17.8001 26.0955 16.5325 26.7704 14.2189C26.9011 13.7709 26.9237 13.154 26.9507 9.29045L26.9817 4.87407H25.2894H23.5971L23.5715 9.03443L23.5461 13.1948L23.3023 13.6833C22.8255 14.6386 22.0116 15.076 20.7275 15.0672C20.1306 15.0631 19.8994 15.0212 19.5128 14.8467C18.9342 14.5858 18.506 14.1808 18.2634 13.6651C18.0887 13.2937 18.0815 13.1322 18.0575 9.0771L18.0327 4.87407H16.3447H14.6567L14.658 9.20511ZM28.0992 6.32375V7.77344L31.0529 7.79588L34.0066 7.81833L31.0529 11.5132L28.0992 15.208V16.4416V17.6752H33.4328H38.7664V16.2244V14.7736H35.731C34.0616 14.7736 32.6956 14.7541 32.6956 14.7302C32.6956 14.7063 34.0225 13.031 35.6443 11.0073L38.593 7.32804V6.1011V4.87407H33.3461H28.0992V6.32375ZM39.8939 6.32486V7.77565H42.7992C44.3971 7.77565 45.7031 7.8045 45.7014 7.83966C45.6997 7.87482 44.3927 9.53581 42.7968 11.5307L39.8954 15.1576L39.8946 16.4164L39.8939 17.6752H45.1841H50.4744V16.2255V14.7758L47.4436 14.7534L44.4129 14.7309L47.4002 11.004L50.3877 7.27709V6.07558V4.87407H45.1408H39.8939V6.32486ZM91.7559 11.2746V17.6752H94.7799C98.0692 17.6752 98.7357 17.6134 99.9222 17.1982C101.861 16.5198 103.303 14.976 103.819 13.0241C103.956 12.5084 104 12.0804 104 11.2746C104 10.016 103.817 9.1947 103.315 8.20236C102.878 7.33939 101.773 6.24012 100.884 5.78457C99.3252 4.98561 98.576 4.87484 94.7262 4.87441L91.7559 4.87407V11.2746ZM71.3928 7.63484C72.2293 8.03176 73.0231 9.12003 73.0231 9.86975V10.0799H69.8143C66.1945 10.0799 66.4875 10.1496 66.7711 9.35548C67.0994 8.43662 67.7144 7.82259 68.6261 7.50325C68.9819 7.37865 69.2693 7.35117 69.9877 7.37276C70.7692 7.39631 70.9685 7.43344 71.3928 7.63484ZM85.4537 7.58586C86.3842 7.99967 86.959 8.7441 87.1984 9.84517L87.2494 10.0799H84.0271H80.8048L80.8584 9.69557C80.9926 8.7319 81.8317 7.79375 82.8512 7.46723C83.4244 7.28375 84.9285 7.35228 85.4537 7.58586ZM97.9169 7.691C99.4309 7.97356 100.459 9.0765 100.687 10.6624C100.807 11.4983 100.682 12.2575 100.298 13.0334C99.9333 13.7695 99.4187 14.2605 98.6228 14.6315C98.0508 14.8982 98.0242 14.902 96.5041 14.9312L94.9647 14.9608V11.2829V7.60497H96.2105C96.8955 7.60497 97.6635 7.64363 97.9169 7.691ZM8.54249 10.5627C9.27931 10.954 9.62656 11.5374 9.62656 12.3841C9.62656 13.2678 9.30481 13.7903 8.54249 14.144C8.12352 14.3384 8.0361 14.3453 5.9624 14.346L3.81593 14.3469V12.3361V10.3252L6.00576 10.3519C8.05587 10.3768 8.2177 10.3903 8.54249 10.5627Z" fill="#344054"/>
</svg>
