<svg width="101" height="20" viewBox="0 0 101 20" fill="none" xmlns="http://www.w3.org/2000/svg">
<path fill-rule="evenodd" clip-rule="evenodd" d="M2.82245 0.524667C1.82446 1.10035 0.92848 2.64199 0.396888 4.69809C-0.144997 6.79417 -0.128299 13.5352 0.424337 15.7544C1.32123 19.3562 3.73169 20.8676 6.30181 19.4399C7.67906 18.6748 8.36276 17.1524 8.53066 14.4774L8.65441 12.5062H7.39039C6.00033 12.5062 5.85394 12.6906 5.84731 14.4507C5.84205 15.8084 5.2702 17.0037 4.62561 17.0037C3.53246 17.0037 3.44714 16.579 3.37623 10.7819C3.30006 4.5854 3.50249 3.18993 4.49591 3.06175C5.21919 2.96855 5.52707 3.62794 5.74575 5.73951L5.90312 7.25916H7.27968H8.65601L8.50664 5.32649C8.3042 2.7122 7.6603 1.31897 6.31028 0.575389C5.06799 -0.108979 3.94922 -0.12522 2.82245 0.524667ZM11.8705 0.495434C9.90241 1.47164 9.05333 4.33854 9.05333 10.0076C9.05333 15.6922 9.86238 18.4217 11.8604 19.4783C13.1114 20.14 14.1277 20.1417 15.3704 19.4846C16.5217 18.8759 17.2075 17.7775 17.7656 15.6485C18.0746 14.4694 18.167 14.3015 18.1798 14.8969C18.2082 16.2339 18.8491 18.1251 19.5058 18.8095C21.147 20.5195 23.6385 20.3656 25.4586 18.4412L26.202 17.6554V18.5788V19.5023H27.342H28.4821L28.5429 12.5687L28.6037 5.63507L29.61 12.2564C30.1633 15.8981 30.6633 19.0184 30.721 19.19C30.7788 19.3624 31.202 19.5023 31.6652 19.5023H32.5049L33.5594 12.6936L34.6139 5.88493L34.6397 12.6936L34.6654 19.5023H36.1522H37.639L37.6657 16.3166C37.6889 13.5739 37.7206 13.3155 37.8949 14.4596C38.4917 18.3797 40.4376 20.4216 43.0638 19.8834C44.8786 19.5116 45.8494 18.1776 46.5402 15.106L46.9842 13.1309L47.0009 16.3166L47.0173 19.5023H48.6185H50.2197V15.8096V12.1172L51.8403 11.8384C53.5966 11.5363 54.5808 10.8144 55.1296 9.4257C55.3787 8.7953 55.4247 9.02493 55.556 11.5495C55.8314 16.8486 56.9801 19.4274 59.2744 19.8976C62.9358 20.6479 64.8428 17.2666 64.8526 10.0076C64.8597 4.74881 63.7346 1.268 61.732 0.354013C59.1858 -0.808089 56.6212 0.98691 56.0466 4.33279C55.8517 5.46666 55.5885 5.34648 55.3965 4.03596C55.2158 2.80215 54.2917 1.57958 53.0883 0.982662C52.3698 0.626111 51.591 0.522668 49.5907 0.518421L47.0173 0.512924L47.0009 3.69865L46.9842 6.88437L46.5354 4.88549C46.2883 3.7861 45.8325 2.46708 45.5223 1.95462C44.167 -0.284381 41.1488 -0.616696 39.5373 1.29599C38.8426 2.12028 38.1408 3.93626 37.8968 5.54037C37.7193 6.70772 37.6889 6.4656 37.6657 3.69865L37.639 0.512924H35.5149H33.3906L32.7556 4.82302C32.4066 7.19345 32.0552 9.35799 31.9749 9.63284C31.8907 9.92093 31.5325 8.12293 31.1288 5.38521L30.4284 0.637854L28.3153 0.565894L26.202 0.494184L26.1912 2.31492L26.1805 4.1359L25.7509 2.93482C25.2113 1.42641 24.9565 1.0936 23.8819 0.494684C22.0732 -0.513254 19.7945 0.186606 18.8123 2.05157C18.498 2.64823 18.1652 3.52999 18.0728 4.01097L17.9047 4.88549L17.6219 3.84207C17.1713 2.17849 16.4329 1.0926 15.3704 0.530664C14.1622 -0.10823 13.1089 -0.118724 11.8705 0.495434ZM65.0878 10.0076V19.5023H68.6333H72.1787V18.1281V16.7539H70.1201H68.0614V8.63339V0.512924H66.5746H65.0878V10.0076ZM72.865 10.0076V19.5023H74.4661H76.0673V10.0076V0.512924H74.4661H72.865V10.0076ZM76.5248 1.88716V3.26139H77.8972H79.2697V11.3819V19.5023H80.8709H82.472V11.3819V3.26139H83.8445C84.8244 3.26139 85.2169 3.35509 85.2169 3.58921C85.2169 3.95226 83.4703 17.7238 83.2859 18.8152C83.1699 19.5013 83.1715 19.5023 84.5181 19.5023H85.8668L86.0132 17.8158C86.0935 16.888 86.1799 15.9606 86.2049 15.7544C86.2634 15.2732 88.6316 15.0711 88.8884 15.5253C88.9815 15.6897 89.1288 16.6519 89.2155 17.6634L89.3734 19.5023H92.2129H95.0528L95.0756 13.818L95.0983 8.13367L96.8015 13.818L98.5047 19.5023H99.7524H101V10.0076V0.512924H99.7419H98.4839L98.4658 5.5726L98.4477 10.6323L97.7933 8.50846C97.4335 7.34037 96.7576 5.06364 96.2912 3.44879L95.4432 0.512924H93.8786H92.314L92.2537 8.94572L92.1935 17.3785L91.3257 9.63284C90.8483 5.37271 90.4027 1.57783 90.3352 1.20004L90.2128 0.512924H87.9664H85.7199L85.4921 1.4499L85.2643 2.38688L85.2405 1.4499L85.2169 0.512924H80.8709H76.5248V1.88716ZM14.4335 3.87805C14.9102 5.1241 14.9102 14.8912 14.4335 16.1372C14.0678 17.0934 13.4314 17.2823 12.9058 16.5905C12.4476 15.9873 12.4476 4.02796 12.9058 3.4248C13.4314 2.73294 14.0678 2.92183 14.4335 3.87805ZM23.0442 3.76111C23.1362 4.10467 23.2686 4.69509 23.3386 5.07288C23.4589 5.72252 23.5344 5.76 24.7266 5.76C25.5574 5.76 26.027 5.87218 26.1029 6.08831C26.1663 6.26896 26.1889 7.61946 26.153 9.08939L26.0876 11.7619L25.3049 10.6972C24.8744 10.1118 23.8567 9.01443 23.0433 8.2586C20.9478 6.31094 20.3117 4.57041 21.2353 3.31111C21.3666 3.13221 21.7896 3.01978 22.1755 3.06125C22.6963 3.11722 22.92 3.29737 23.0442 3.76111ZM43.0663 3.68765C43.4236 4.28332 43.4719 5.01941 43.4719 9.8717C43.4719 15.8179 43.3078 16.7966 42.2842 16.9565C41.3068 17.1092 41.1845 16.3363 41.1845 10.0076C41.1845 3.81758 41.3034 3.01153 42.2165 3.01153C42.4608 3.01153 42.8433 3.31586 43.0663 3.68765ZM61 3.82358C61.2328 4.42674 61.3136 6.01785 61.3136 10.0076C61.3136 15.9713 61.14 17.0037 60.1365 17.0037C59.1687 17.0037 59.0333 16.1457 59.0333 10.0076C59.0333 3.86955 59.1687 3.01153 60.1365 3.01153C60.54 3.01153 60.7696 3.22766 61 3.82358ZM51.4272 3.49026C52.199 3.81083 52.5842 4.99118 52.4581 6.6505C52.3424 8.1754 51.9085 8.83803 50.8487 9.10763L50.2197 9.26754V6.26447C50.2197 3.03677 50.2375 2.99604 51.4272 3.49026ZM88.1972 7.9153C88.4415 10.2343 88.643 12.2156 88.6448 12.3188C88.6467 12.422 88.1766 12.5062 87.6006 12.5062C86.5816 12.5062 86.5562 12.4875 86.6717 11.8191C86.7371 11.4413 86.9693 9.41846 87.188 7.32412C87.4064 5.22979 87.6228 3.55748 87.6688 3.6077C87.715 3.65792 87.9527 5.59634 88.1972 7.9153ZM21.4618 11.571C23.6193 13.7036 24.1097 14.6615 23.6783 15.9008C23.3754 16.7709 23.0833 16.995 22.2445 17C21.7283 17.003 21.5396 16.8356 21.2724 16.1372C21.0901 15.6607 20.941 14.9861 20.941 14.638C20.941 14.0314 20.8847 14.0054 19.5685 14.0054H18.1961V10.7082V7.41108L18.8484 8.52196C19.2073 9.13287 20.3833 10.5051 21.4618 11.571Z" fill="#344054"/>
</svg>
