<svg width="56" height="20" viewBox="0 0 56 20" fill="none" xmlns="http://www.w3.org/2000/svg">
<path fill-rule="evenodd" clip-rule="evenodd" d="M0 0.0854701V0.17094H0.637363H1.27473V10V19.8291H0.637363H0V19.9145V20H3.64835H7.2967V17.3138V14.6276H7.23077C7.19451 14.6276 7.16466 14.6303 7.16446 14.6337C7.16426 14.6371 7.15455 14.8853 7.1429 15.1854C7.04864 17.6118 6.4373 18.9124 5.15609 19.4121C4.76965 19.5628 4.19323 19.6579 3.66484 19.658L3.40659 19.6581V14.7338V9.8096L3.65385 9.82388C4.54024 9.87509 5.08444 10.3648 5.30514 11.3098C5.40615 11.7424 5.47132 12.4626 5.4722 13.1563L5.47253 13.4066H5.54945H5.62637V9.67033V5.93407H5.55288H5.47941L5.46415 6.4652C5.43321 7.54288 5.34527 8.10466 5.13255 8.58364C4.85336 9.21223 4.42596 9.51326 3.69547 9.59578C3.57029 9.60991 3.45409 9.62149 3.43723 9.62149C3.41114 9.62149 3.40659 8.93118 3.40659 4.96948V0.31746H3.55868C3.64235 0.31746 3.8624 0.329206 4.04769 0.343541C4.99903 0.417216 5.55455 0.647106 6.01356 1.15709C6.63923 1.85221 6.95112 3.01648 7.00378 4.85348L7.01798 5.34799H7.09141H7.16484V2.67399V0H3.58242H0V0.0854701ZM16.2198 0.0851038V0.170208L16.8626 0.176679L17.5055 0.18315L17.511 10.0061L17.5165 19.8291H16.8682H16.2198V19.9145V20H19.8791H23.5385V17.3138V14.6276H23.465H23.3915L23.3764 15.0977C23.3017 17.4292 22.7467 18.8058 21.6374 19.411C21.1723 19.6647 20.6902 19.7821 19.9615 19.8192L19.6264 19.8363V10.0036V0.17094H20.2637H20.9011V0.0854701V0H18.5604H16.2198V0.0851038ZM32.4396 0.0854701V0.17094H33.0879H33.7363V10V19.8291H33.0879H32.4396V19.9145V20H36.121H39.8024L39.7968 17.3199L39.7912 14.6398L39.7088 14.6322C39.6355 14.6255 39.6263 14.6309 39.626 14.6811C39.6246 14.8802 39.5792 15.7556 39.5597 15.9585C39.4297 17.3148 39.0741 18.3044 38.4948 18.9224C37.9509 19.5025 37.274 19.765 36.18 19.8198L35.8462 19.8366V10.0038V0.17094H36.4945H37.1429V0.0854701V0H34.7912H32.4396V0.0854701ZM48.6813 0.0854701V0.17094H49.3297H49.978V10V19.8291H49.3297H48.6813V19.9145V20H52.3407H56V17.3138V14.6276H55.9375H55.8751L55.8605 15.0977C55.8072 16.8206 55.4912 17.9777 54.8794 18.6906C54.327 19.3342 53.6499 19.6099 52.522 19.6505L52.1099 19.6653V14.7411V9.81685H52.2828C52.511 9.81685 52.7918 9.87304 53.014 9.96315C53.652 10.2219 53.9952 10.8187 54.1215 11.8893C54.1474 12.1088 54.1946 13.019 54.1973 13.3516C54.1977 13.3981 54.2097 13.4066 54.2747 13.4066H54.3517V9.67033V5.93407H54.2747C54.2098 5.93407 54.1977 5.94261 54.1973 5.98901C54.1944 6.28654 54.1505 7.21878 54.1309 7.40024C54.0477 8.17045 53.8712 8.68337 53.5683 9.03541C53.2622 9.39101 52.8922 9.55878 52.3022 9.60938L52.1099 9.62589V4.96799V0.31011L52.478 0.326984C52.9208 0.347277 53.195 0.378877 53.4674 0.441001C54.8341 0.752723 55.5022 1.86166 55.6811 4.11504C55.6993 4.34322 55.7141 4.64642 55.7142 4.78884C55.7142 4.93126 55.7206 5.11534 55.7284 5.19788L55.7425 5.34799H55.8163H55.8901V2.67399V0H52.2857H48.6813V0.0854701Z" fill="#344054"/>
</svg>
