<svg width="25" height="24" viewBox="0 0 25 24" fill="none" xmlns="http://www.w3.org/2000/svg">
<path fill-rule="evenodd" clip-rule="evenodd" d="M9.5 7C9.5 5.34315 10.8431 4 12.5 4C14.1569 4 15.5 5.34315 15.5 7V11H9.5V7ZM12.5 2C9.73858 2 7.5 4.23858 7.5 7V11.25H5.5C5.08579 11.25 4.75 11.5858 4.75 12V19.5C4.75 20.7426 5.75736 21.75 7 21.75H18C19.2426 21.75 20.25 20.7426 20.25 19.5V12C20.25 11.5858 19.9142 11.25 19.5 11.25H17.5V7C17.5 4.23858 15.2614 2 12.5 2ZM12.5 14C13.3284 14 14 14.6716 14 15.5C14 16.0649 13.6877 16.5568 13.2264 16.8127C13.2418 16.8726 13.25 16.9353 13.25 17V19C13.25 19.4142 12.9142 19.75 12.5 19.75C12.0858 19.75 11.75 19.4142 11.75 19V17C11.75 16.9353 11.7582 16.8726 11.7736 16.8127C11.3123 16.5568 11 16.0649 11 15.5C11 14.6716 11.6716 14 12.5 14Z" fill="black"/>
</svg>
