<svg width="129" height="18" viewBox="0 0 129 18" fill="none" xmlns="http://www.w3.org/2000/svg">
<path fill-rule="evenodd" clip-rule="evenodd" d="M7.37895 0.0271584L7.22517 0.0645835L7.56154 0.124531C8.12851 0.225579 8.4129 0.418976 8.50824 0.768244C8.57553 1.01478 8.42503 1.30285 8.15441 1.44557C8.03033 1.51101 7.96089 1.52093 7.63525 1.51975C7.18892 1.51809 6.86895 1.44048 5.43108 0.985242C3.85385 0.485869 3.40502 0.380708 2.8681 0.384686C2.44384 0.387822 2.10781 0.47599 1.66308 0.700811C0.883284 1.09509 0.441801 1.79929 0.441801 2.64894C0.441801 3.15799 0.602585 3.57021 0.926376 3.89135C1.20096 4.16368 1.67241 4.36871 1.42568 4.10852C1.13576 3.80275 1.14707 3.27856 1.45114 2.92808C1.64651 2.70292 1.83251 2.6335 2.23589 2.63529C2.60383 2.6369 2.6716 2.65255 5.07227 3.2906C6.03147 3.54553 6.83916 3.73494 7.23372 3.79749L7.48147 3.8368V5.0071V6.17739L6.91686 6.63077C6.48854 6.97475 6.36322 7.09232 6.39757 7.11797C6.42252 7.13655 6.67673 7.3406 6.96252 7.57146L7.48212 7.99116L7.47324 9.62816L7.46439 11.2652L7.17392 11.4086C6.47501 11.7538 5.46556 11.8396 4.72828 11.6165C4.41679 11.5223 3.88721 11.2528 3.59636 11.0406C3.33261 10.8481 3.00479 10.5433 3.00479 10.4905C3.00479 10.4712 3.65066 10.137 4.44006 9.74792L5.87533 9.04051V6.53677C5.87533 5.1597 5.86556 4.033 5.85363 4.033C5.84171 4.033 5.04137 4.38378 4.07506 4.81252C3.10874 5.24126 2.31241 5.58638 2.3054 5.5795C2.27902 5.55343 2.52937 5.06711 2.7096 4.79434C2.9699 4.40034 3.31911 4.05012 3.74252 3.75848C4.0264 3.56292 4.08681 3.508 4.02793 3.49906C3.90317 3.48018 3.49135 3.62945 3.00479 3.86994C1.46276 4.6321 0.316317 6.11835 0.0479206 7.70332C-0.0327964 8.17994 -0.00829429 9.15458 0.0969933 9.65351C0.597186 12.0246 2.60616 13.6558 5.02101 13.6517C5.56473 13.6507 5.85422 13.6044 6.37085 13.4358C6.75789 13.3095 7.38312 13.0151 7.68511 12.817C8.34137 12.3866 8.89952 11.6842 9.22878 10.8745C9.45586 10.3161 9.56905 9.82111 9.59051 9.29275C9.60069 9.0424 9.60035 8.84543 9.58975 8.85504C9.57916 8.86465 9.50118 9.00879 9.41643 9.17535C9.05542 9.88497 8.48798 10.5591 7.87925 11.0016C7.76911 11.0816 7.66529 11.1471 7.64858 11.1471C7.63125 11.1471 7.61817 10.4733 7.61817 9.58045V8.01372L8.17454 7.5659C8.48056 7.31956 8.7316 7.10287 8.73242 7.08433C8.73324 7.06578 8.48268 6.84764 8.1756 6.59955L7.61728 6.14853L7.62627 4.99803L7.63525 3.84756L7.87447 3.82183C8.37162 3.76839 8.80117 3.58312 9.14995 3.27175C9.41257 3.03725 9.54191 2.842 9.64737 2.52099C9.76479 2.16353 9.78068 2.06841 9.77794 1.74029C9.77528 1.42288 9.69822 1.12877 9.55415 0.886217C9.35598 0.55256 8.82424 0.20218 8.31872 0.0721697C8.04977 0.00298378 7.57231 -0.0198759 7.37895 0.0271584ZM97.8264 0.0171784C97.7557 0.0319124 97.6904 0.0512993 97.6814 0.0602678C97.6723 0.0692364 97.7904 0.0955351 97.9439 0.118732C98.349 0.179927 98.5559 0.266342 98.7216 0.443724C98.885 0.618644 98.9289 0.715376 98.9289 0.900917C98.9289 1.17456 98.7294 1.40319 98.4017 1.50535C98.1907 1.57106 97.714 1.52504 97.2031 1.38957C96.9588 1.3248 96.3206 1.13356 95.785 0.964608C94.6795 0.615947 94.0235 0.440757 93.7004 0.407951C93.5782 0.395543 93.4418 0.379899 93.3971 0.373122C93.2426 0.349756 92.7594 0.429158 92.4794 0.523935C91.3703 0.899366 90.752 1.81406 90.8704 2.90434C90.9258 3.41467 91.2026 3.86189 91.6135 4.10518C91.9064 4.27859 91.9548 4.27191 91.8053 4.07872C91.5979 3.81074 91.5661 3.5049 91.7118 3.17997C91.8657 2.83671 92.1269 2.66098 92.5331 2.62736C92.8258 2.60315 93.0437 2.64648 94.2648 2.9714C95.7627 3.37003 97.1704 3.71728 97.5534 3.78265L97.9037 3.84243L97.9032 5.00821L97.9028 6.17398L97.3394 6.62632C97.0295 6.87508 96.776 7.08089 96.776 7.08365C96.776 7.08638 97.0297 7.29249 97.3397 7.54165L97.9035 7.99467L97.895 9.62991L97.8866 11.2652L97.5961 11.4065C96.8799 11.7548 95.8869 11.84 95.1505 11.6162C94.6153 11.4536 94.0642 11.13 93.6421 10.7307L93.3784 10.4813L94.8294 9.76059L96.2805 9.03987L96.2892 6.53246C96.2975 4.15461 96.2949 4.02588 96.238 4.042C96.2049 4.05134 95.404 4.4034 94.458 4.82442C93.5121 5.2454 92.7313 5.58307 92.7229 5.57481C92.6899 5.54231 93.0638 4.86495 93.2518 4.61639C93.5152 4.2682 93.7868 4.01209 94.1987 3.72328L94.5376 3.48565L94.3744 3.50594C94.1544 3.53325 93.4753 3.81067 93.1273 4.01533C92.0618 4.64198 91.2077 5.59743 90.7606 6.66287C90.2222 7.94595 90.2973 9.62822 90.9503 10.9135C91.7474 12.4823 93.2268 13.4716 95.0325 13.6435C96.0347 13.7388 97.135 13.4399 98.1006 12.8101C99.0044 12.2204 99.679 11.1578 99.9374 9.9165C100.003 9.60112 100.047 8.88815 100.001 8.88815C99.9843 8.88815 99.9309 8.97537 99.8828 9.08202C99.6578 9.58139 99.0847 10.3396 98.6515 10.7113C98.3826 10.9419 98.1087 11.1471 98.0696 11.1471C98.0535 11.1471 98.0413 10.4378 98.0425 9.57091L98.0445 7.99467L98.6072 7.54617C98.9167 7.2995 99.1614 7.08412 99.1511 7.06757C99.1407 7.05101 98.8866 6.83874 98.5863 6.59578L98.0404 6.15409V4.99735V3.84058L98.2898 3.81981C98.7785 3.77905 99.2191 3.58373 99.6104 3.23439C100.176 2.72952 100.365 1.68597 100.019 0.973441C99.839 0.601314 99.2774 0.208822 98.7285 0.0713942C98.472 0.00713089 98.0081 -0.0207525 97.8264 0.0171784ZM81.2 1.42629L79.8571 2.36387L79.9818 2.38946C80.0505 2.40352 80.1504 2.44583 80.204 2.48346C80.3243 2.56795 80.4976 2.90943 80.5435 3.15253C80.5654 3.26797 80.5779 4.84253 80.5779 7.47399V11.6138L80.0628 12.0596C79.6053 12.4556 79.5535 12.511 79.599 12.5559C79.6444 12.6008 79.6834 12.5777 79.9476 12.3491L80.2451 12.0918L80.813 12.6268C81.1254 12.921 81.4585 13.2304 81.5533 13.3145L81.7256 13.4672L82.808 12.5261C83.5612 11.8712 83.8844 11.5697 83.8708 11.5346C83.86 11.507 83.8382 11.4843 83.8223 11.4843C83.8064 11.4843 83.6812 11.5828 83.544 11.7032C83.4069 11.8236 83.286 11.9222 83.2756 11.9224C83.265 11.9225 83.1036 11.7604 82.9167 11.5622L82.577 11.2018L82.5599 5.84522L82.5428 0.488668L81.2 1.42629ZM36.6891 0.548042C36.6761 0.560922 36.6654 0.604416 36.6654 0.644741C36.6654 0.768244 36.4654 1.12098 36.3239 1.24712C36.1087 1.43896 35.9286 1.51354 35.6393 1.5306C35.1986 1.5566 34.7705 1.40818 34.3718 1.09121C34.2569 0.999909 34.1516 0.937938 34.1377 0.953447C34.1238 0.968957 33.6926 1.4596 33.1794 2.04373C32.6663 2.62787 32.2073 3.14774 32.1595 3.19899C32.0817 3.2822 32.078 3.29764 32.1242 3.34323C32.1704 3.38885 32.208 3.35813 32.4751 3.05603L32.7742 2.71776L33.0194 2.90701C33.4456 3.23604 33.852 3.40331 34.3423 3.45152L34.5979 3.47668L34.6066 6.34108C34.6121 8.15199 34.6034 9.19362 34.5829 9.17325C34.565 9.15552 33.6568 7.52517 32.5647 5.55023C31.4725 3.5753 30.5087 1.85667 30.4227 1.73105C29.9359 1.01909 29.1152 0.661498 28.3613 0.83281C27.7352 0.97506 27.1289 1.59753 26.9809 2.24984C26.9204 2.5161 26.8857 3.12114 26.919 3.32495L26.9439 3.47668L27.0222 3.24066C27.227 2.62345 27.5747 2.41414 28.0366 2.62996C28.24 2.72497 28.3716 2.85586 28.5814 3.17165L28.7372 3.40608V4.45695V5.50782L28.4894 5.53122C27.409 5.63338 26.8043 6.09057 26.6771 6.90155C26.5884 7.4668 26.8871 8.17606 27.3308 8.45382C27.4578 8.53335 27.8593 8.68585 27.9417 8.68585C27.9513 8.68585 27.9028 8.62435 27.8341 8.54923C27.6838 8.38514 27.6436 8.29009 27.6436 8.09861C27.6436 7.79635 27.9257 7.57807 28.3556 7.54772C28.4994 7.53757 28.6178 7.54624 28.6633 7.57028L28.7372 7.60929V9.1035V10.5977L28.4382 10.6175C27.2824 10.6941 26.4895 11.2049 26.1395 12.0983C25.8348 12.8763 25.9697 13.6265 26.5165 14.1945C26.8908 14.5832 27.3136 14.7894 27.842 14.8407C27.9749 14.8537 28.173 14.8531 28.2822 14.8396L28.4809 14.8149L28.2364 14.7535C27.9267 14.6757 27.7453 14.5842 27.5518 14.4082C27.1511 14.0438 27.1249 13.534 27.4852 13.1138C27.8135 12.7308 28.5253 12.7344 29.1166 13.122C29.2408 13.2033 29.4055 13.3376 29.4828 13.4203L29.6233 13.5706L30.668 12.4217C31.2427 11.7898 31.7071 11.2559 31.7002 11.2352C31.6688 11.1422 31.5719 11.2064 31.3252 11.4837L31.0597 11.7822L30.8809 11.6102C30.398 11.1457 29.724 10.7879 29.096 10.6624L28.891 10.6215L28.8823 7.1349C28.8775 5.21728 28.8866 3.66279 28.9024 3.68049C28.9184 3.69819 30.1352 5.89751 31.6067 8.56784C33.0781 11.2382 34.3141 13.4578 34.3534 13.5004C34.4114 13.5633 34.4539 13.5759 34.5797 13.5678L34.7346 13.5579L34.7517 8.51727L34.7688 3.47668L34.8713 3.46606C35.0963 3.44279 35.3992 3.34734 35.6951 3.20651C35.9568 3.08199 36.0452 3.01733 36.2505 2.80039C36.6588 2.36906 36.8704 1.85755 36.8704 1.30197C36.8704 0.943063 36.7589 0.479193 36.6891 0.548042ZM11.7019 1.6093C11.0252 2.12934 10.4596 2.56623 10.4449 2.58016C10.4302 2.59412 10.4927 2.6512 10.5837 2.707C10.6889 2.7715 10.7733 2.8565 10.8154 2.94028C10.8798 3.0683 10.882 3.19339 10.8908 7.2908L10.8998 11.5096L10.3535 11.9132C9.8792 12.2637 9.8127 12.3242 9.84892 12.3718C9.88604 12.4206 9.91799 12.4062 10.1369 12.2421C10.2724 12.1406 10.3937 12.0575 10.4066 12.0575C10.4274 12.0575 11.136 12.7041 11.6574 13.1989L11.8521 13.3837L12.9964 12.4769C13.8708 11.7839 14.1322 11.56 14.1046 11.5272C14.0848 11.5036 14.0589 11.4844 14.0471 11.4845C14.0353 11.4847 13.9103 11.5754 13.7694 11.6862L13.5131 11.8876L13.2311 11.6108L12.9492 11.3341V9.03509V6.7361L13.2704 6.46347C13.4471 6.31354 13.6004 6.19084 13.6111 6.19084C13.6219 6.19084 13.8473 6.45683 14.1119 6.78192L14.5932 7.37304L14.5801 10.0946C14.5666 12.9121 14.5624 13.0004 14.4162 13.5695C14.3085 13.9889 14.1693 14.2275 13.8323 14.5713C13.5073 14.9027 13.3144 15.0259 12.9339 15.1453C12.7032 15.2177 12.6973 15.2221 12.7954 15.2491C12.8518 15.2647 13.1363 15.2761 13.4276 15.2746C13.9006 15.2721 13.9902 15.262 14.2648 15.1803C15.4046 14.8412 16.135 14.1324 16.4487 13.0609C16.5928 12.5685 16.6115 12.1987 16.6349 9.36159L16.657 6.6826L16.88 6.51256C17.3631 6.14435 17.34 6.16694 17.2924 6.11036C17.2541 6.06484 17.2053 6.09064 16.9046 6.31532L16.5606 6.57234L16.4379 6.43198C15.9052 5.82239 15.0102 4.84674 14.9825 4.84526C14.9637 4.84425 14.5024 5.22457 13.9573 5.69042L12.9663 6.53741L12.9492 3.60058L12.9321 0.66379L11.7019 1.6093ZM62.7395 1.89531L61.663 2.75774L61.6539 1.94322C61.6454 1.19159 61.6401 1.12955 61.5855 1.13993C61.5297 1.15052 61.5259 1.49159 61.5177 7.15732L61.5091 13.1635L61.3499 13.1162C61.211 13.075 60.7359 12.9818 60.3388 12.918L60.2107 12.8973V7.75879C60.2107 4.16129 60.1994 2.56664 60.1732 2.44155C60.0524 1.86558 59.6209 1.38724 59.0551 1.20187C58.2667 0.943636 57.5247 1.1197 56.9307 1.70606C56.5392 2.09249 56.3116 2.58228 56.3172 3.02636L56.3195 3.20695L56.3629 3.07208C56.4898 2.67794 56.7346 2.37446 56.9778 2.30986C57.4415 2.18669 57.8281 2.50632 57.9201 3.08894C57.9395 3.21163 57.9548 3.94911 57.955 4.76427L57.9552 6.22041L57.7929 6.24182C57.2207 6.31721 56.8044 6.48775 56.5181 6.76402C56.2822 6.99171 56.1512 7.19202 56.0697 7.44978C55.9231 7.91307 56.0633 8.51562 56.4044 8.88815C56.566 9.06462 56.8948 9.22531 57.0944 9.22531H57.2477L57.1348 9.14945C56.8746 8.97477 56.8039 8.7375 56.9365 8.48446C57.0521 8.26382 57.2668 8.16325 57.6223 8.16325C57.8224 8.16325 57.8974 8.17593 57.9217 8.21382C57.9414 8.2445 57.9544 9.19881 57.9546 10.6414L57.955 13.0184L57.7991 13.0817C57.553 13.1815 57.1364 13.4651 56.9306 13.6728C56.7222 13.8832 56.5365 14.1986 56.465 14.4638C56.4034 14.6918 56.4057 15.1901 56.4695 15.4572C56.6236 16.1022 57.0519 16.6748 57.5539 16.9068C57.9333 17.0823 58.2162 17.132 58.8267 17.1303C59.4803 17.1285 59.8062 17.083 61.1334 16.8081C63.0082 16.4196 63.5909 16.3655 63.8735 16.5534C64.0571 16.6754 64.1236 16.8254 64.1227 17.1149C64.1217 17.4264 64.044 17.5898 63.7757 17.8441C63.5722 18.037 63.5756 18.0383 63.9697 17.9167C64.5832 17.7276 65.104 17.3352 65.3194 16.8998C65.4776 16.58 65.5417 16.3154 65.5417 15.9819C65.5417 15.3314 65.219 14.8451 64.5377 14.4692C64.1921 14.2786 63.9622 14.2335 63.3546 14.2372C62.7397 14.241 62.3021 14.2997 60.8488 14.5732C59.1468 14.8936 58.4741 14.9583 58.0725 14.8401C57.4366 14.6529 57.2705 13.8383 57.7717 13.3657C58.3299 12.8395 59.7884 12.8367 61.7144 13.3581C62.7807 13.6467 62.9962 13.6857 63.5426 13.689C64.0689 13.6921 64.2566 13.6541 64.6287 13.4688C65.0211 13.2733 65.2454 12.9837 65.3952 12.4789C65.4511 12.2908 65.456 11.9368 65.4652 7.42095L65.4751 2.56529L65.8676 2.23025C66.212 1.93635 66.254 1.88918 66.2102 1.84595C66.1664 1.80273 66.116 1.83493 65.7994 2.10837C65.601 2.27978 65.425 2.41502 65.4084 2.40888C65.3917 2.40278 65.0312 2.09053 64.6073 1.715C64.1833 1.33947 63.8318 1.03238 63.8262 1.03255C63.8206 1.03271 63.3315 1.42096 62.7395 1.89531ZM101.755 2.51812C101.288 2.94366 101.021 3.20958 101.037 3.23459C101.1 3.33686 102.22 4.54066 102.245 4.53186C102.26 4.52637 102.605 4.2212 103.011 3.85369L103.75 3.18547L103.641 3.06136C103.2 2.56266 102.537 1.84143 102.519 1.84143C102.507 1.84143 102.163 2.14596 101.755 2.51812ZM62.6989 3.02151L63.1827 3.44296L63.1832 4.93191L63.1837 6.42086L63.0727 6.51337C62.671 6.84797 62.171 6.84099 61.7719 6.49523L61.646 6.38616V4.67246V2.95873L61.8937 2.75774C62.03 2.64719 62.158 2.5665 62.1783 2.57841C62.1985 2.59031 62.4328 2.78971 62.6989 3.02151ZM43.5171 3.25995C43.0279 3.32576 42.7067 3.49384 42.3031 3.89506C41.8805 4.31514 41.7243 4.64498 41.7234 5.1187C41.7223 5.7058 41.8454 5.95058 42.4234 6.51115C42.6721 6.75222 42.9153 7.01794 42.9641 7.10166C43.1517 7.42358 43.1573 7.50254 43.1571 9.83221L43.157 11.9732L42.7817 12.2416C42.5753 12.3892 42.4065 12.5286 42.4065 12.5515C42.4065 12.6575 42.5047 12.6164 42.8504 12.3657L43.2235 12.095L44.0776 12.8012C44.5474 13.1895 44.9422 13.5073 44.955 13.5073C44.9678 13.5073 45.3912 13.1811 45.896 12.7824C46.4008 12.3837 46.8236 12.0575 46.8355 12.0575C46.8475 12.0575 47.2788 12.3902 47.794 12.7968L48.7308 13.536L49.2508 13.2177C49.5368 13.0426 50.3705 12.5314 51.1035 12.0816L52.4363 11.2639L52.4451 9.12083L52.4539 6.97778L53.1062 6.4073C53.465 6.09354 53.7917 5.81099 53.8322 5.77944C53.8984 5.72778 53.9005 5.71682 53.8532 5.66982C53.8059 5.62276 53.7706 5.64413 53.4944 5.88709C53.3259 6.03531 53.175 6.15672 53.159 6.15686C53.1431 6.15699 52.7778 5.8676 52.3474 5.51372C51.917 5.15983 51.5512 4.87533 51.5346 4.88154C51.5179 4.88771 51.1296 5.23326 50.6717 5.64939C50.2138 6.06555 49.8338 6.40966 49.8273 6.41411C49.8207 6.41856 49.9707 6.56924 50.1604 6.74895L50.5055 7.07573V9.68129V12.2868L50.3839 12.3576C50.3171 12.3965 50.2473 12.4284 50.2289 12.4284C50.2105 12.4284 49.8731 12.1624 49.4791 11.8373L48.7627 11.2462V9.06961V6.89295L49.053 6.58404C49.2128 6.41415 49.3435 6.26566 49.3435 6.25406C49.3437 6.21819 47.8036 4.87088 47.7754 4.88214C47.7607 4.88798 47.3695 5.22639 46.906 5.63412L46.0634 6.37551L46.4049 6.71361L46.7465 7.05176V9.49714V11.9425L46.5761 12.0706L46.4058 12.1988L45.8841 11.7856C45.5972 11.5583 45.3202 11.334 45.2685 11.2872L45.1745 11.202L45.1741 8.87342C45.1736 6.36283 45.1727 6.34769 44.9921 6.04708C44.8643 5.83429 44.5907 5.59062 44.1322 5.28134C43.4297 4.80743 43.1818 4.50432 43.179 4.11553C43.1774 3.88636 43.3152 3.61458 43.5368 3.41005C43.6318 3.32242 43.7047 3.24761 43.6987 3.24383C43.6928 3.24002 43.6111 3.24727 43.5171 3.25995ZM128.72 4.65918C128.675 5.14132 128.367 5.40677 127.812 5.4422C127.58 5.45707 127.547 5.4502 127.317 5.33782C127.181 5.27167 126.978 5.13289 126.866 5.02942C126.753 4.92591 126.645 4.84714 126.627 4.85436C126.608 4.86154 126.3 5.05649 125.943 5.28755C125.133 5.81153 124.722 6.05571 124.038 6.41917L123.499 6.70508L123.501 7.80505L123.503 8.90501L124.067 9.41075C124.377 9.68891 124.663 9.95015 124.702 9.99128L124.774 10.066L124.39 10.4601C123.345 11.5326 123.072 12.0926 123.23 12.8397C123.358 13.4464 123.884 13.9707 124.473 14.0775C124.699 14.1186 124.731 14.0905 124.559 13.9999C123.983 13.6962 123.874 13.2039 124.317 12.9096C124.707 12.6506 125.163 12.7733 125.714 13.285C125.847 13.4087 125.908 13.4451 125.943 13.4215C126.975 12.7103 127.59 12.3226 128.409 11.865L129 11.5349L128.999 10.0851L128.998 8.63528L128.383 8.14639C128.045 7.8775 127.738 7.63431 127.701 7.60598C127.634 7.55592 127.639 7.54594 127.878 7.25196C128.579 6.39213 128.931 5.60934 128.89 5.00844C128.88 4.86535 128.842 4.68564 128.806 4.60294L128.74 4.45445L128.72 4.65918ZM83.8842 6.57858C83.2123 7.55197 82.6587 8.36099 82.6539 8.37637C82.6492 8.39178 83.3581 9.53716 84.2292 10.9217C85.649 13.1783 85.8191 13.4347 85.8716 13.3973C86.0371 13.2793 88.1643 11.4074 88.1643 11.3797C88.1643 11.3619 88.1414 11.3387 88.1134 11.3281C88.0811 11.3158 87.9492 11.4092 87.7519 11.5839C87.581 11.7352 87.427 11.8543 87.4096 11.8486C87.3921 11.8428 86.6104 10.6854 85.6724 9.27656C84.4276 7.40686 83.9747 6.70111 83.9956 6.66365C84.1034 6.47106 84.0978 6.47116 84.4083 6.6568C84.8398 6.91477 85.1634 7.01248 85.5843 7.01194C85.8562 7.0116 85.966 6.99609 86.1221 6.93604C86.7504 6.69433 87.2277 6.00847 87.4265 5.06172C87.4537 4.93211 87.47 4.82027 87.4628 4.81313C87.4556 4.80601 87.376 4.86481 87.2858 4.94384C87.1958 5.02287 87.0067 5.14233 86.8658 5.20933C86.626 5.32322 86.5885 5.33101 86.2848 5.3302C85.9953 5.32942 85.9361 5.31823 85.738 5.22652C85.6159 5.16995 85.4277 5.05275 85.3199 4.96606C85.2121 4.87938 85.1198 4.80854 85.1149 4.80861C85.1099 4.80871 84.5561 5.60519 83.8842 6.57858ZM69.6937 5.36617C69.2239 5.63553 68.4541 6.04751 67.9832 6.28167L67.127 6.70741L67.1302 9.12116C67.132 10.4487 67.1221 11.5591 67.1082 11.5886C67.0943 11.6181 66.9593 11.7467 66.8083 11.8744C66.5719 12.0742 66.5403 12.1132 66.5819 12.1541C66.6372 12.2087 66.6605 12.1946 66.9996 11.9024L67.1991 11.7304L68.2517 12.6134L69.3044 13.4964L70.1142 13.0174C70.8458 12.5846 72.4728 11.683 72.7949 11.5319L72.9231 11.4718V9.18816V6.90452L73.2319 6.62022C73.5022 6.37139 73.5339 6.33046 73.4869 6.29199C73.428 6.24374 73.4141 6.25366 73.0199 6.6247L72.8262 6.80701L71.7079 5.84147C71.0928 5.31041 70.5802 4.87604 70.5688 4.87617C70.5574 4.87631 70.1636 5.09681 69.6937 5.36617ZM21.764 5.0042C21.0878 5.42504 19.6073 6.28009 19.0406 6.57703L18.3485 6.93961V9.2446V11.5496L18.0239 11.8072C17.8453 11.9489 17.6993 12.0753 17.6993 12.0881C17.6993 12.1009 17.7171 12.129 17.7389 12.1505C17.7689 12.1801 17.8418 12.1378 18.0401 11.976C18.184 11.8585 18.3334 11.7429 18.372 11.7191C18.4368 11.6792 18.5183 11.7444 19.4412 12.5747C19.9907 13.0691 20.4502 13.4736 20.4623 13.4735C20.4745 13.4735 21.2456 12.8726 22.1759 12.1381C23.1063 11.4036 23.8978 10.7816 23.9348 10.7558C23.995 10.7139 23.9966 10.7037 23.9498 10.6576C23.9031 10.6115 23.7971 10.6847 22.926 11.3647L21.9543 12.1233L21.7832 11.9621C21.6891 11.8735 21.3314 11.5383 20.9884 11.2172L20.3648 10.6335V10.3532V10.0729L21.9624 8.90268C22.841 8.25907 23.5553 7.7156 23.5497 7.695C23.532 7.63039 21.9548 4.9103 21.9349 4.90996C21.9245 4.90976 21.8476 4.95217 21.764 5.0042ZM39.8416 5.0044C39.1519 5.43462 37.684 6.28279 37.1182 6.57801L36.4262 6.93904V9.24359V11.5481L36.1015 11.809C35.923 11.9525 35.7769 12.0792 35.7769 12.0906C35.7769 12.1021 35.7947 12.129 35.8165 12.1505C35.8465 12.1801 35.9194 12.1378 36.1177 11.976C36.2616 11.8585 36.4113 11.7427 36.4501 11.7188C36.5158 11.6783 36.5938 11.7408 37.5204 12.5744C38.0701 13.0689 38.5293 13.4734 38.5409 13.4732C38.5525 13.473 39.3081 12.8851 40.2201 12.1667C41.1321 11.4483 41.9229 10.8259 41.9776 10.7835C42.0654 10.7154 42.0711 10.7007 42.0263 10.6565C41.9815 10.6123 41.8626 10.6948 41.0042 11.3654L40.0328 12.1243L39.8442 11.9456C39.7404 11.8474 39.3826 11.5118 39.0489 11.2L38.4424 10.633V10.3531V10.0731L40.04 8.90433C40.9187 8.2615 41.6376 7.72494 41.6376 7.71196C41.6376 7.67541 40.0339 4.9103 40.0125 4.90996C40.0021 4.90976 39.9252 4.95227 39.8416 5.0044ZM74.7818 5.78989C73.5144 6.91986 73.6197 6.81631 73.6735 6.88031C73.7124 6.92657 73.7529 6.90162 74.0036 6.67703C74.1608 6.53623 74.3042 6.42615 74.3221 6.43239C74.3402 6.43862 74.5109 6.64854 74.7017 6.89889L75.0485 7.35406L75.0278 9.46133L75.0071 11.5686L74.8621 11.7035C74.7823 11.7776 74.5787 11.9627 74.4096 12.1147C74.135 12.3613 74.1076 12.3965 74.1535 12.4424C74.1995 12.4883 74.2367 12.4649 74.5036 12.2224L74.8022 11.9511L74.8812 12.0127C74.9246 12.0466 75.2976 12.38 75.7101 12.7537C76.1225 13.1273 76.4754 13.4343 76.4942 13.4358C76.547 13.4401 78.6984 11.6467 78.6984 11.5984C78.6984 11.4901 78.6062 11.5354 78.284 11.8016C77.9449 12.0819 77.9351 12.0872 77.8631 12.0309C77.8225 11.9992 77.6328 11.8366 77.4415 11.6697L77.0936 11.3663L77.0929 8.92622L77.0922 6.48613L77.329 6.7065C77.4711 6.83874 77.659 6.97181 77.7989 7.03931C78.0134 7.14279 78.058 7.15176 78.3573 7.15176C78.6584 7.15176 78.7003 7.14319 78.9192 7.03689C79.5501 6.73044 79.9969 5.96872 79.9969 5.19962V4.93761L79.8402 5.07375C79.7539 5.14864 79.6184 5.24095 79.5389 5.27892C79.25 5.41692 78.8022 5.33876 78.4766 5.09361L78.3256 4.97985L77.7217 5.58381C77.3896 5.91599 77.0959 6.21883 77.069 6.25676C77.042 6.29469 77.0072 6.32571 76.9916 6.32571C76.976 6.32571 76.6976 6.00709 76.373 5.61766C76.0484 5.22824 75.7797 4.90962 75.7759 4.90962C75.7722 4.90962 75.3249 5.30572 74.7818 5.78989ZM112.379 5.72127C111.817 6.16498 111.346 6.52801 111.332 6.52801C111.318 6.52801 110.988 6.18282 110.598 5.76096C110.209 5.3391 109.88 4.99037 109.869 4.98602C109.857 4.98167 109.401 5.32659 108.856 5.75253C108.311 6.17847 107.856 6.52339 107.845 6.51904C107.834 6.51469 107.497 6.16515 107.097 5.74228L106.369 4.97338L106.28 5.0542C106.231 5.09867 105.749 5.51749 105.208 5.985C104.668 6.45248 104.226 6.83992 104.226 6.84595C104.226 6.85199 104.247 6.87434 104.273 6.89565C104.311 6.92653 104.385 6.87933 104.637 6.66378C104.811 6.51492 104.965 6.39314 104.979 6.39314C104.993 6.39314 105.221 6.63822 105.486 6.93776L105.969 7.48238V9.38199V11.2816L105.73 11.5094L105.491 11.7372L106.241 12.5795C106.653 13.0427 107.002 13.4259 107.018 13.4309C107.033 13.4359 107.395 13.0948 107.822 12.6729L108.599 11.9058L108.275 11.5632L107.951 11.2206V8.928V6.63543L108.113 6.50316C108.202 6.4304 108.293 6.36047 108.316 6.34779C108.354 6.32584 109.381 7.4813 109.42 7.59078C109.429 7.61681 109.436 8.48119 109.435 9.5116L109.433 11.3851L109.234 11.5831C109.097 11.72 109.045 11.7951 109.064 11.8266C109.086 11.8627 110.245 13.1702 110.434 13.3715C110.474 13.4145 110.529 13.3736 110.841 13.0681C111.04 12.8739 111.386 12.5222 111.612 12.2867L112.022 11.8584L111.75 11.5786L111.478 11.2989L111.454 8.97244L111.431 6.64601L111.637 6.48586C111.751 6.39776 111.851 6.32571 111.859 6.32571C111.867 6.32571 112.129 6.60525 112.441 6.94693L113.008 7.56815V9.44939V11.3306L112.816 11.5228L112.623 11.7149L113.42 12.5772C114.2 13.4222 114.218 13.4383 114.286 13.3806C114.324 13.3483 114.802 12.913 115.348 12.4133C115.894 11.9137 116.344 11.5024 116.349 11.4994C116.369 11.4881 116.315 11.3832 116.289 11.3832C116.275 11.3832 116.154 11.4831 116.02 11.6052C115.886 11.7273 115.764 11.8222 115.747 11.8159C115.731 11.8097 115.546 11.6151 115.337 11.3835L114.956 10.9623L114.957 8.80416L114.959 6.64601L115.318 6.37844C115.516 6.23127 115.685 6.09863 115.695 6.08369C115.704 6.06872 115.698 6.03281 115.682 6.00385C115.657 5.96049 115.584 6.00284 115.266 6.24384L114.881 6.5365L114.804 6.45639C114.761 6.41233 114.431 6.0463 114.07 5.64295C113.709 5.2396 113.411 4.91073 113.407 4.91208C113.404 4.91347 112.941 5.2776 112.379 5.72127ZM119.877 5.45168C118.915 6.02732 118.353 6.34469 117.647 6.71058L117.212 6.93638V9.24298V11.5496L116.887 11.8072C116.708 11.9489 116.562 12.0753 116.562 12.0881C116.562 12.1009 116.58 12.1288 116.601 12.1499C116.631 12.1788 116.713 12.129 116.933 11.9508C117.093 11.8201 117.244 11.7059 117.268 11.6969C117.291 11.688 117.759 12.0849 118.306 12.5789C118.854 13.073 119.315 13.4726 119.332 13.467C119.373 13.4528 122.809 10.747 122.831 10.7114C122.841 10.6956 122.828 10.6656 122.803 10.6446C122.766 10.6145 122.553 10.7651 121.789 11.3627L120.821 12.1189L120.59 11.9112C120.463 11.7969 120.106 11.4683 119.797 11.1809L119.234 10.6583L119.231 10.3634L119.228 10.0686L119.931 9.55425C120.318 9.27134 121.04 8.74297 121.536 8.38011L122.437 7.72032L121.627 6.31606C121.181 5.54373 120.809 4.91134 120.799 4.91073C120.79 4.91013 120.375 5.15356 119.877 5.45168ZM100.87 5.8293C100.098 6.50137 99.8647 6.72225 99.8922 6.75488C99.912 6.77845 99.9379 6.79767 99.9497 6.7976C99.9615 6.79753 100.086 6.69895 100.227 6.57858C100.368 6.45821 100.494 6.35963 100.506 6.35956C100.519 6.35949 100.723 6.58846 100.959 6.86837L101.389 7.37729V9.54565V11.714L101.09 11.9775C100.926 12.1225 100.785 12.2457 100.776 12.2513C100.768 12.2568 100.784 12.284 100.812 12.3116C100.857 12.356 100.9 12.3307 101.184 12.0912C101.437 11.8787 101.514 11.8298 101.545 11.8632C101.566 11.8866 101.866 12.232 102.21 12.6307C102.553 13.0294 102.854 13.3763 102.878 13.4017C102.913 13.4398 103.096 13.292 103.932 12.5479C104.488 12.0529 104.943 11.6377 104.943 11.6251C104.943 11.6126 104.93 11.5829 104.915 11.5592C104.895 11.5281 104.807 11.5864 104.599 11.769C104.441 11.908 104.301 12.0223 104.288 12.0228C104.275 12.0233 104.08 11.8152 103.854 11.5602L103.442 11.0966L103.441 8.95504L103.44 6.81352L103.783 6.51617C104.102 6.24047 104.159 6.16323 104.066 6.13261C104.046 6.12607 103.887 6.24243 103.713 6.39118C103.539 6.53994 103.384 6.65394 103.369 6.6445C103.353 6.63509 103.044 6.28285 102.681 5.86177C102.318 5.44069 101.991 5.06253 101.953 5.02139L101.885 4.94661L100.87 5.8293ZM3.68825 7.55608V9.9665L3.31293 10.1522C3.10649 10.2544 2.92253 10.338 2.90411 10.338C2.88569 10.338 2.81062 10.2507 2.73725 10.1441C2.40566 9.66211 2.06892 8.83063 1.96398 8.23469C1.89648 7.85144 1.89659 7.22411 1.96422 6.77471C2.01923 6.40909 2.16461 5.86103 2.22168 5.80405C2.25353 5.77222 3.61126 5.15467 3.66262 5.14864C3.6767 5.14698 3.68825 6.23032 3.68825 7.55608ZM94.0763 7.566V9.98639L93.6969 10.1706L93.3176 10.3548L93.2226 10.2428C92.9684 9.94344 92.6009 9.14335 92.4487 8.55776C92.2892 7.9445 92.2899 7.09481 92.4504 6.39156C92.5906 5.77775 92.5459 5.82344 93.3587 5.46196C93.744 5.29062 94.0631 5.14931 94.0677 5.14803C94.0724 5.14671 94.0763 6.23481 94.0763 7.566ZM125.862 6.39469C126.598 7.11035 127.419 7.13696 128.178 6.46978L128.397 6.27726L128.315 6.41988C128.168 6.67373 127.792 7.15692 127.438 7.54664C127.081 7.9393 126.268 8.69442 126.181 8.7135C126.154 8.71943 125.97 8.58298 125.772 8.41025L125.413 8.09619V6.96696V5.83773L125.536 6.01754C125.603 6.11646 125.75 6.28619 125.862 6.39469ZM70.1686 6.81459L70.9024 7.48892L70.9047 9.94529L70.9069 12.4016L70.7787 12.2915C70.7083 12.231 70.3084 11.8722 69.8902 11.4944L69.1299 10.8073V8.34383V5.88038L69.2823 6.01032C69.3662 6.0818 69.765 6.44372 70.1686 6.81459ZM21.2018 7.3871C21.625 8.10465 21.9631 8.70473 21.9531 8.72065C21.9309 8.75618 20.4102 9.86592 20.3837 9.86592C20.3733 9.86592 20.3652 8.9897 20.3658 7.9188C20.3665 6.65947 20.3784 5.99124 20.3996 6.02708C20.4177 6.05753 20.7786 6.66955 21.2018 7.3871ZM39.2577 7.3465C39.6926 8.08412 40.0476 8.6986 40.0464 8.71202C40.0444 8.7366 38.5349 9.83936 38.4747 9.86029C38.4546 9.86727 38.4424 9.13327 38.4424 7.92444C38.4424 6.8535 38.4479 5.98362 38.4546 5.99134C38.4614 5.9991 38.8228 6.60889 39.2577 7.3465ZM120.775 8.75588C120.695 8.83026 119.268 9.86592 119.245 9.86592C119.236 9.86592 119.228 8.99011 119.228 7.91965V5.97337L120.032 7.33636C120.795 8.63147 120.832 8.70214 120.775 8.75588ZM61.8363 6.75256C62.1052 6.95152 62.5263 6.99056 62.842 6.84575C62.9454 6.79834 63.0646 6.72757 63.1069 6.6885L63.1837 6.61739V7.31677V8.01611L63.0827 7.94514C62.6704 7.65548 62.1655 7.66226 61.7661 7.9628L61.646 8.05323V7.33922C61.646 6.77717 61.655 6.63047 61.6887 6.65006C61.7122 6.66375 61.7786 6.70987 61.8363 6.75256ZM62.7465 7.96277C62.8322 7.9916 62.9661 8.06901 63.0441 8.13483L63.1858 8.25448L63.1762 10.3161C63.1667 12.3689 63.1663 12.3785 63.0904 12.5393C62.9848 12.763 62.7031 13.0471 62.5026 13.1322C62.3027 13.2171 62.0152 13.2543 61.8028 13.2229L61.646 13.1997V10.7471V8.29447L61.757 8.18965C61.856 8.09625 62.0484 7.98307 62.1927 7.93337C62.2994 7.89659 62.5966 7.9124 62.7465 7.96277ZM126.724 9.17474L127.117 9.5119L127.119 10.928L127.122 12.3441L126.959 12.0604C126.326 10.953 125.144 10.5809 124.208 11.1941C124.103 11.2627 123.916 11.4246 123.793 11.5539C123.669 11.6832 123.568 11.7765 123.568 11.7611C123.568 11.7201 123.791 11.3606 123.949 11.1471C124.1 10.9439 126.265 8.81367 126.305 8.82844C126.319 8.83346 126.508 8.9893 126.724 9.17474Z" fill="#344054"/>
</svg>
