<svg width="30" height="30" viewBox="0 0 30 30" fill="none" xmlns="http://www.w3.org/2000/svg">
<circle cx="15" cy="15" r="15" fill="#D0D5DD"/>
<path d="M13.3594 22H7.5V14.4849C7.5 12.4646 7.89063 10.9293 8.67187 9.87879C9.53125 8.78788 10.9766 8.16162 13.0078 8V11.5758C12.3047 11.5758 11.7188 11.8788 11.25 12.4848C11.0156 12.8081 10.8984 13.4343 10.8984 14.3636V15.5152H13.3594V22ZM22.5 22H16.6406V14.4849C16.6406 12.4646 16.9922 10.9899 17.6953 10.0606C18.6328 8.84849 20.1172 8.16162 22.1484 8V11.5758C20.9375 11.5758 20.2539 12.202 20.0977 13.4545C20.0586 13.6162 20.0391 13.9192 20.0391 14.3636V15.5152H22.5V22Z" fill="white"/>
</svg>
