<svg width="89" height="16" viewBox="0 0 89 16" fill="none" xmlns="http://www.w3.org/2000/svg">
<path d="M6.60227 3.60575C7.44671 2.09091 7.86892 1.3335 8.50016 1.3335C9.1314 1.3335 9.55362 2.09091 10.3981 3.60575L10.6165 3.99765C10.8565 4.42812 10.9765 4.64335 11.1635 4.78537C11.3506 4.92738 11.5836 4.9801 12.0496 5.08553L12.4738 5.18152C14.1136 5.55253 14.9335 5.73804 15.1285 6.36532C15.3236 6.99259 14.7647 7.64621 13.6468 8.95345L13.3576 9.29164C13.0399 9.66312 12.881 9.84886 12.8096 10.0786C12.7381 10.3084 12.7621 10.5562 12.8102 11.0519L12.8539 11.5031C13.0229 13.2472 13.1074 14.1193 12.5967 14.507C12.086 14.8947 11.3184 14.5412 9.78305 13.8343L9.38584 13.6514C8.94955 13.4505 8.7314 13.3501 8.50016 13.3501C8.26893 13.3501 8.05078 13.4505 7.61449 13.6514L7.21728 13.8343C5.68195 14.5412 4.91428 14.8947 4.4036 14.507C3.89291 14.1193 3.97742 13.2472 4.14643 11.5031L4.19015 11.0519C4.23818 10.5562 4.26219 10.3084 4.19074 10.0786C4.11928 9.84886 3.96045 9.66312 3.64278 9.29164L3.35356 8.95345C2.23566 7.64621 1.67671 6.99259 1.87178 6.36532C2.06684 5.73804 2.88673 5.55253 4.52652 5.18152L4.95075 5.08553C5.41673 4.9801 5.64972 4.92738 5.83679 4.78537C6.02387 4.64335 6.14385 4.42812 6.38381 3.99765L6.60227 3.60575Z" fill="#FEC84B"/>
<path d="M24.6023 3.60575C25.4467 2.09091 25.8689 1.3335 26.5002 1.3335C27.1314 1.3335 27.5536 2.09091 28.3981 3.60575L28.6165 3.99765C28.8565 4.42812 28.9765 4.64335 29.1635 4.78537C29.3506 4.92738 29.5836 4.9801 30.0496 5.08553L30.4738 5.18152C32.1136 5.55253 32.9335 5.73804 33.1285 6.36532C33.3236 6.99259 32.7647 7.64621 31.6468 8.95345L31.3576 9.29164C31.0399 9.66312 30.881 9.84886 30.8096 10.0786C30.7381 10.3084 30.7621 10.5562 30.8102 11.0519L30.8539 11.5031C31.0229 13.2472 31.1074 14.1193 30.5967 14.507C30.086 14.8947 29.3184 14.5412 27.783 13.8343L27.3858 13.6514C26.9495 13.4505 26.7314 13.3501 26.5002 13.3501C26.2689 13.3501 26.0508 13.4505 25.6145 13.6514L25.2173 13.8343C23.6819 14.5412 22.9143 14.8947 22.4036 14.507C21.8929 14.1193 21.9774 13.2472 22.1464 11.5031L22.1902 11.0519C22.2382 10.5562 22.2622 10.3084 22.1907 10.0786C22.1193 9.84886 21.9604 9.66312 21.6428 9.29164L21.3536 8.95345C20.2357 7.64621 19.6767 6.99259 19.8718 6.36532C20.0668 5.73804 20.8867 5.55253 22.5265 5.18152L22.9508 5.08553C23.4167 4.9801 23.6497 4.92738 23.8368 4.78537C24.0239 4.64335 24.1438 4.42812 24.3838 3.99765L24.6023 3.60575Z" fill="#FEC84B"/>
<path d="M42.6023 3.60575C43.4467 2.09091 43.8689 1.3335 44.5002 1.3335C45.1314 1.3335 45.5536 2.09091 46.3981 3.60575L46.6165 3.99765C46.8565 4.42812 46.9765 4.64335 47.1635 4.78537C47.3506 4.92738 47.5836 4.9801 48.0496 5.08553L48.4738 5.18152C50.1136 5.55253 50.9335 5.73804 51.1285 6.36532C51.3236 6.99259 50.7647 7.64621 49.6468 8.95345L49.3576 9.29164C49.0399 9.66312 48.881 9.84886 48.8096 10.0786C48.7381 10.3084 48.7621 10.5562 48.8102 11.0519L48.8539 11.5031C49.0229 13.2472 49.1074 14.1193 48.5967 14.507C48.086 14.8947 47.3184 14.5412 45.783 13.8343L45.3858 13.6514C44.9495 13.4505 44.7314 13.3501 44.5002 13.3501C44.2689 13.3501 44.0508 13.4505 43.6145 13.6514L43.2173 13.8343C41.6819 14.5412 40.9143 14.8947 40.4036 14.507C39.8929 14.1193 39.9774 13.2472 40.1464 11.5031L40.1902 11.0519C40.2382 10.5562 40.2622 10.3084 40.1907 10.0786C40.1193 9.84886 39.9604 9.66312 39.6428 9.29164L39.3536 8.95345C38.2357 7.64621 37.6767 6.99259 37.8718 6.36532C38.0668 5.73804 38.8867 5.55253 40.5265 5.18152L40.9508 5.08553C41.4167 4.9801 41.6497 4.92738 41.8368 4.78537C42.0239 4.64335 42.1438 4.42812 42.3838 3.99765L42.6023 3.60575Z" fill="#FEC84B"/>
<path d="M60.6023 3.60575C61.4467 2.09091 61.8689 1.3335 62.5002 1.3335C63.1314 1.3335 63.5536 2.09091 64.3981 3.60575L64.6165 3.99765C64.8565 4.42812 64.9765 4.64335 65.1635 4.78537C65.3506 4.92738 65.5836 4.9801 66.0496 5.08553L66.4738 5.18152C68.1136 5.55253 68.9335 5.73804 69.1285 6.36532C69.3236 6.99259 68.7647 7.64621 67.6468 8.95345L67.3576 9.29164C67.0399 9.66312 66.881 9.84886 66.8096 10.0786C66.7381 10.3084 66.7621 10.5562 66.8102 11.0519L66.8539 11.5031C67.0229 13.2472 67.1074 14.1193 66.5967 14.507C66.086 14.8947 65.3184 14.5412 63.783 13.8343L63.3858 13.6514C62.9495 13.4505 62.7314 13.3501 62.5002 13.3501C62.2689 13.3501 62.0508 13.4505 61.6145 13.6514L61.2173 13.8343C59.6819 14.5412 58.9143 14.8947 58.4036 14.507C57.8929 14.1193 57.9774 13.2472 58.1464 11.5031L58.1902 11.0519C58.2382 10.5562 58.2622 10.3084 58.1907 10.0786C58.1193 9.84886 57.9604 9.66312 57.6428 9.29164L57.3536 8.95345C56.2357 7.64621 55.6767 6.99259 55.8718 6.36532C56.0668 5.73804 56.8867 5.55253 58.5265 5.18152L58.9508 5.08553C59.4167 4.9801 59.6497 4.92738 59.8368 4.78537C60.0239 4.64335 60.1438 4.42812 60.3838 3.99765L60.6023 3.60575Z" fill="#FEC84B"/>
<path fill-rule="evenodd" clip-rule="evenodd" d="M80.0611 2.60977C79.8169 2.92861 79.5413 3.42054 79.141 4.13867L78.9378 4.50322C78.9255 4.52519 78.9134 4.54696 78.9015 4.56851C78.715 4.90412 78.5576 5.18739 78.3039 5.37993C78.0476 5.57455 77.735 5.64478 77.3718 5.72641C77.3485 5.73165 77.3249 5.73694 77.3012 5.74232L76.9066 5.83161C76.1281 6.00774 75.5985 6.12893 75.2358 6.27187C74.8818 6.41137 74.8071 6.52566 74.7786 6.61724C74.7486 6.7139 74.7477 6.86175 74.9593 7.1979C75.1741 7.53908 75.5364 7.96464 76.0663 8.58431L76.3353 8.8989C76.351 8.91718 76.3665 8.93526 76.3818 8.95315C76.6317 9.24467 76.8401 9.48774 76.9357 9.79512C77.0307 10.1006 76.9992 10.4217 76.961 10.811C76.9587 10.8348 76.9563 10.859 76.954 10.8834L76.9133 11.3031C76.8332 12.1292 76.7793 12.698 76.7975 13.1078C76.8157 13.5168 76.9021 13.6298 76.9708 13.682C77.0319 13.7283 77.1448 13.7797 77.5127 13.6743C77.8865 13.5671 78.3834 13.3398 79.1123 13.0042L79.4818 12.8341C79.5046 12.8236 79.5271 12.8132 79.5494 12.8029C79.8873 12.6467 80.1804 12.5112 80.5002 12.5112C80.8199 12.5112 81.113 12.6467 81.4509 12.8029C81.4732 12.8132 81.4958 12.8236 81.5185 12.8341L81.888 13.0042C82.6169 13.3398 83.1138 13.5671 83.4876 13.6743C83.8555 13.7797 83.9684 13.7283 84.0295 13.682C84.0982 13.6298 84.1846 13.5168 84.2028 13.1078C84.2211 12.698 84.1671 12.1292 84.087 11.3031L84.0464 10.8834C84.044 10.859 84.0416 10.8348 84.0393 10.811C84.0011 10.4217 83.9696 10.1006 84.0646 9.79512C84.1602 9.48774 84.3686 9.24467 84.6185 8.95314C84.6339 8.93525 84.6493 8.91718 84.665 8.8989L84.934 8.58431C85.4639 7.96464 85.8263 7.53908 86.041 7.1979C86.2526 6.86175 86.2518 6.7139 86.2217 6.61724C86.1932 6.52566 86.1185 6.41137 85.7645 6.27187C85.4018 6.12893 84.8722 6.00774 84.0938 5.8316L83.6991 5.74232C83.6754 5.73694 83.6518 5.73165 83.6285 5.7264C83.2653 5.64478 82.9528 5.57455 82.6964 5.37993C82.4427 5.18739 82.2853 4.90412 82.0989 4.56851C82.0869 4.54696 82.0748 4.52519 82.0625 4.50321L81.8593 4.13867C81.459 3.42054 81.1834 2.92861 80.9392 2.60977C80.6953 2.29124 80.5707 2.26369 80.5002 2.26369C80.4296 2.26369 80.305 2.29124 80.0611 2.60977ZM79.3226 2.04422C79.6182 1.65821 79.9835 1.3335 80.5002 1.3335C81.0168 1.3335 81.3821 1.65821 81.6778 2.04422C81.9682 2.42351 82.2762 2.97606 82.6526 3.65138L82.875 4.0503C83.1184 4.48698 83.1807 4.57974 83.2588 4.63904C83.334 4.69611 83.431 4.72795 83.9044 4.83506L84.3385 4.93328C85.0676 5.09821 85.6682 5.23408 86.1056 5.40646C86.5596 5.5854 86.957 5.84913 87.1099 6.34103C87.2613 6.82786 87.0912 7.27575 86.8282 7.69345C86.5727 8.0993 86.1647 8.57648 85.6662 9.15935L85.3719 9.50345C85.0513 9.87836 84.9843 9.9701 84.9529 10.0713C84.9208 10.1746 84.9238 10.2938 84.9722 10.7937L85.0166 11.2514C85.0921 12.0303 85.1536 12.6654 85.1321 13.1492C85.1101 13.6415 84.9983 14.1144 84.592 14.4229C84.178 14.7371 83.6964 14.7017 83.2314 14.5685C82.7806 14.4393 82.2186 14.1805 81.5361 13.8662L81.1295 13.679C80.6847 13.4742 80.5894 13.4414 80.5002 13.4414C80.4109 13.4414 80.3157 13.4742 79.8708 13.679L79.4642 13.8662C78.7818 14.1805 78.2197 14.4393 77.7689 14.5685C77.3039 14.7017 76.8223 14.7371 76.4084 14.4229C76.002 14.1144 75.8902 13.6416 75.8682 13.1492C75.8467 12.6654 75.9083 12.0303 75.9838 11.2514L76.0281 10.7937C76.0765 10.2938 76.0796 10.1746 76.0475 10.0713C76.016 9.9701 75.949 9.87836 75.6284 9.50345L75.3342 9.15938C74.8357 8.57649 74.4276 8.09931 74.1721 7.69345C73.9091 7.27575 73.739 6.82786 73.8904 6.34103C74.0434 5.84913 74.4407 5.5854 74.8947 5.40646C75.3322 5.23408 75.9328 5.09821 76.6618 4.93328L76.7013 4.92435L77.0959 4.83506C77.5693 4.72795 77.6663 4.69611 77.7415 4.63904C77.8196 4.57974 77.8819 4.48698 78.1253 4.0503L78.3477 3.65138C78.7241 2.97606 79.0321 2.42351 79.3226 2.04422Z" fill="#FEC84B"/>
<path fill-rule="evenodd" clip-rule="evenodd" d="M80.0611 2.60977C79.8169 2.92861 79.5413 3.42054 79.141 4.13867L78.9378 4.50322C78.9255 4.52519 78.9134 4.54696 78.9015 4.56851C78.715 4.90412 78.5576 5.18739 78.3039 5.37993C78.0476 5.57455 77.735 5.64478 77.3718 5.72641C77.3485 5.73165 77.3249 5.73694 77.3012 5.74232L76.9066 5.83161C76.1281 6.00774 75.5985 6.12893 75.2358 6.27187C74.8818 6.41137 74.8071 6.52566 74.7786 6.61724C74.7486 6.7139 74.7477 6.86175 74.9593 7.1979C75.1741 7.53908 75.5364 7.96464 76.0663 8.58431L76.3353 8.8989C76.351 8.91718 76.3665 8.93526 76.3818 8.95315C76.6317 9.24467 76.8401 9.48774 76.9357 9.79512C77.0307 10.1006 76.9992 10.4217 76.961 10.811C76.9587 10.8348 76.9563 10.859 76.954 10.8834L76.9133 11.3031C76.8332 12.1292 76.7793 12.698 76.7975 13.1078C76.8157 13.5168 76.9021 13.6298 76.9708 13.682C77.0319 13.7283 77.1448 13.7797 77.5127 13.6743C77.8865 13.5671 78.3834 13.3398 79.1123 13.0042L79.4818 12.8341C79.5046 12.8236 79.5271 12.8132 79.5494 12.8029C79.8873 12.6467 80.1804 12.5112 80.5002 12.5112C80.8199 12.5112 81.113 12.6467 81.4509 12.8029C81.4732 12.8132 81.4958 12.8236 81.5185 12.8341L81.888 13.0042C82.6169 13.3398 83.1138 13.5671 83.4876 13.6743C83.8555 13.7797 83.9684 13.7283 84.0295 13.682C84.0982 13.6298 84.1846 13.5168 84.2028 13.1078C84.2211 12.698 84.1671 12.1292 84.087 11.3031L84.0464 10.8834C84.044 10.859 84.0416 10.8348 84.0393 10.811C84.0011 10.4217 83.9696 10.1006 84.0646 9.79512C84.1602 9.48774 84.3686 9.24467 84.6185 8.95314C84.6339 8.93525 84.6493 8.91718 84.665 8.8989L84.934 8.58431C85.4639 7.96464 85.8263 7.53908 86.041 7.1979C86.2526 6.86175 86.2518 6.7139 86.2217 6.61724C86.1932 6.52566 86.1185 6.41137 85.7645 6.27187C85.4018 6.12893 84.8722 6.00774 84.0938 5.8316L83.6991 5.74232C83.6754 5.73694 83.6518 5.73165 83.6285 5.7264C83.2653 5.64478 82.9528 5.57455 82.6964 5.37993C82.4427 5.18739 82.2853 4.90412 82.0989 4.56851C82.0869 4.54696 82.0748 4.52519 82.0625 4.50321L81.8593 4.13867C81.459 3.42054 81.1834 2.92861 80.9392 2.60977C80.6953 2.29124 80.5707 2.26369 80.5002 2.26369C80.4296 2.26369 80.305 2.29124 80.0611 2.60977ZM79.3226 2.04422C79.6182 1.65821 79.9835 1.3335 80.5002 1.3335C81.0168 1.3335 81.3821 1.65821 81.6778 2.04422C81.9682 2.42351 82.2762 2.97606 82.6526 3.65138L82.875 4.0503C83.1184 4.48698 83.1807 4.57974 83.2588 4.63904C83.334 4.69611 83.431 4.72795 83.9044 4.83506L84.3385 4.93328C85.0676 5.09821 85.6682 5.23408 86.1056 5.40646C86.5596 5.5854 86.957 5.84913 87.1099 6.34103C87.2613 6.82786 87.0912 7.27575 86.8282 7.69345C86.5727 8.0993 86.1647 8.57648 85.6662 9.15935L85.3719 9.50345C85.0513 9.87836 84.9843 9.9701 84.9529 10.0713C84.9208 10.1746 84.9238 10.2938 84.9722 10.7937L85.0166 11.2514C85.0921 12.0303 85.1536 12.6654 85.1321 13.1492C85.1101 13.6415 84.9983 14.1144 84.592 14.4229C84.178 14.7371 83.6964 14.7017 83.2314 14.5685C82.7806 14.4393 82.2186 14.1805 81.5361 13.8662L81.1295 13.679C80.6847 13.4742 80.5894 13.4414 80.5002 13.4414C80.4109 13.4414 80.3157 13.4742 79.8708 13.679L79.4642 13.8662C78.7818 14.1805 78.2197 14.4393 77.7689 14.5685C77.3039 14.7017 76.8223 14.7371 76.4084 14.4229C76.002 14.1144 75.8902 13.6416 75.8682 13.1492C75.8467 12.6654 75.9083 12.0303 75.9838 11.2514L76.0281 10.7937C76.0765 10.2938 76.0796 10.1746 76.0475 10.0713C76.016 9.9701 75.949 9.87836 75.6284 9.50345L75.3342 9.15938C74.8357 8.57649 74.4276 8.09931 74.1721 7.69345C73.9091 7.27575 73.739 6.82786 73.8904 6.34103C74.0434 5.84913 74.4407 5.5854 74.8947 5.40646C75.3322 5.23408 75.9328 5.09821 76.6618 4.93328L76.7013 4.92435L77.0959 4.83506C77.5693 4.72795 77.6663 4.69611 77.7415 4.63904C77.8196 4.57974 77.8819 4.48698 78.1253 4.0503L78.3477 3.65138C78.7241 2.97606 79.0321 2.42351 79.3226 2.04422Z" fill="#FEC84B"/>
<path d="M80.0611 2.60977C79.8169 2.92861 79.5413 3.42054 79.141 4.13867L78.9378 4.50322L78.9015 4.56851C78.715 4.90412 78.5576 5.18739 78.3039 5.37993C78.0476 5.57455 77.735 5.64478 77.3718 5.72641L77.3012 5.74232L76.9066 5.83161C76.1281 6.00774 75.5985 6.12893 75.2358 6.27187C74.8818 6.41137 74.8071 6.52566 74.7786 6.61724C74.7486 6.7139 74.7477 6.86175 74.9593 7.1979C75.1741 7.53908 75.5364 7.96464 76.0663 8.58431L76.3353 8.8989L76.3818 8.95315C76.6317 9.24467 76.8401 9.48774 76.9357 9.79512C77.0307 10.1006 76.9992 10.4217 76.961 10.811L76.954 10.8834L76.9133 11.3031C76.8332 12.1292 76.7793 12.698 76.7975 13.1078C76.8157 13.5168 76.9021 13.6298 76.9708 13.682C77.0319 13.7283 77.1448 13.7797 77.5127 13.6743C77.8865 13.5671 78.3834 13.3398 79.1123 13.0042L79.4818 12.8341L79.5494 12.8029C79.8873 12.6467 80.1804 12.5112 80.5002 12.5112V2.26369C80.4296 2.26369 80.305 2.29124 80.0611 2.60977Z" fill="#FEC84B"/>
<path d="M80.0611 2.60977C79.8169 2.92861 79.5413 3.42054 79.141 4.13867L78.9378 4.50322L78.9015 4.56851C78.715 4.90412 78.5576 5.18739 78.3039 5.37993C78.0476 5.57455 77.735 5.64478 77.3718 5.72641L77.3012 5.74232L76.9066 5.83161C76.1281 6.00774 75.5985 6.12893 75.2358 6.27187C74.8818 6.41137 74.8071 6.52566 74.7786 6.61724C74.7486 6.7139 74.7477 6.86175 74.9593 7.1979C75.1741 7.53908 75.5364 7.96464 76.0663 8.58431L76.3353 8.8989L76.3818 8.95315C76.6317 9.24467 76.8401 9.48774 76.9357 9.79512C77.0307 10.1006 76.9992 10.4217 76.961 10.811L76.954 10.8834L76.9133 11.3031C76.8332 12.1292 76.7793 12.698 76.7975 13.1078C76.8157 13.5168 76.9021 13.6298 76.9708 13.682C77.0319 13.7283 77.1448 13.7797 77.5127 13.6743C77.8865 13.5671 78.3834 13.3398 79.1123 13.0042L79.4818 12.8341L79.5494 12.8029C79.8873 12.6467 80.1804 12.5112 80.5002 12.5112V2.26369C80.4296 2.26369 80.305 2.29124 80.0611 2.60977Z" fill="#FEC84B"/>
</svg>
