<svg width="177" height="16" viewBox="0 0 177 16" fill="none" xmlns="http://www.w3.org/2000/svg">
<path d="M9.67486 0.45614C10.6218 0.77193 11.4636 1.29825 12.165 2.03509C12.8665 2.80702 13.2873 3.82456 13.3925 5.08772H9.53457C9.32414 3.78947 8.4824 3.15789 7.04443 3.15789C6.37806 3.15789 5.85197 3.29825 5.46617 3.57895C5.08038 3.85965 4.86994 4.21053 4.86994 4.70175C4.86994 5.12281 5.01023 5.40351 5.29081 5.61404C5.57139 5.82456 6.02733 6 6.62356 6.14035L8.76298 6.63158C10.2711 6.94737 11.4285 7.47368 12.2351 8.14035C13.0067 8.80702 13.4276 9.75439 13.4276 11.0175C13.4276 12.0351 13.147 12.9123 12.6209 13.6491C12.0949 14.386 11.3583 14.9825 10.4114 15.4035C9.46443 15.8246 8.34211 16 7.04443 16C5.85197 16 4.72965 15.7895 3.74763 15.4035C2.73053 15.0175 1.92386 14.4211 1.25749 13.614C0.626184 12.807 0.240387 11.7895 0.100098 10.5614H3.92299C4.02821 11.2281 4.37893 11.7544 4.94009 12.1404C5.50125 12.5263 6.23777 12.7018 7.14965 12.7018C7.8511 12.7018 8.41226 12.5965 8.76298 12.3509C9.14878 12.1053 9.32414 11.7895 9.32414 11.3684C9.32414 10.7018 8.79805 10.2807 7.71081 10.0702L5.1856 9.50877C3.67748 9.19298 2.55517 8.63158 1.81865 7.92982C1.08212 7.19298 0.731401 6.21053 0.731401 5.01754C0.731401 4 0.976908 3.12281 1.50299 2.35088C2.02908 1.57895 2.73053 1.01754 3.64241 0.596491C4.55429 0.210526 5.60646 0 6.79893 0C7.78095 0 8.72791 0.140351 9.67486 0.45614Z" fill="#222222"/>
<path d="M28.7896 15.7895L25.7033 6.42107L22.5818 15.7895H18.8992L13.9189 0.350891H17.9873L20.8633 9.92984L24.125 0.421067V0.350891H27.2815L30.5433 9.89475L33.3841 0.350891H37.4174L32.4722 15.7895H28.7896Z" fill="#222222"/>
<path d="M39.2407 15.7193V0.350891H43.0636V15.7193H39.2407Z" fill="#222222"/>
<path d="M54.8824 0.45614C55.8293 0.77193 56.6711 1.29825 57.3725 2.03509C58.074 2.80702 58.4948 3.82456 58.6001 5.08772H54.7421C54.5317 3.78947 53.6899 3.15789 52.252 3.15789C51.5856 3.15789 51.0595 3.29825 50.6737 3.57895C50.2879 3.85965 50.0775 4.21053 50.0775 4.70175C50.0775 5.12281 50.2178 5.40351 50.4983 5.61404C50.7789 5.82456 51.2349 6 51.8311 6.14035L53.9705 6.63158C55.4786 6.94737 56.636 7.47368 57.4427 8.14035C58.2143 8.80702 58.6351 9.75439 58.6351 11.0175C58.6351 12.0351 58.3546 12.9123 57.8285 13.6491C57.3024 14.386 56.5659 14.9825 55.6189 15.4035C54.672 15.8246 53.5496 16 52.252 16C51.0595 16 49.9372 15.7895 48.9551 15.4035C47.9381 15.0175 47.1314 14.4211 46.465 13.614C45.8337 12.807 45.4479 11.7895 45.3076 10.5614H49.1305C49.2357 11.2281 49.5865 11.7544 50.1476 12.1404C50.7088 12.5263 51.4453 12.7018 52.3572 12.7018C53.0586 12.7018 53.6198 12.5965 53.9705 12.3509C54.3563 12.1053 54.5317 11.7895 54.5317 11.3684C54.5317 10.7018 54.0056 10.2807 52.9183 10.0702L50.3931 9.50877C48.885 9.19298 47.7627 8.63158 47.0262 7.92982C46.2896 7.19298 45.9389 6.21053 45.9389 5.01754C45.9389 4 46.1844 3.12281 46.7105 2.35088C47.2366 1.57895 47.938 1.01754 48.8499 0.596491C49.7618 0.175439 50.814 0 52.0415 0C52.9885 0 53.9354 0.140351 54.8824 0.45614Z" fill="#222222"/>
<path d="M69.4737 0.45614C70.4206 0.77193 71.2624 1.29825 71.9638 2.03509C72.6653 2.80702 73.0861 3.82456 73.1914 5.08772H69.3334C69.123 3.78947 68.2812 3.15789 66.8433 3.15789C66.1769 3.15789 65.6508 3.29825 65.265 3.57895C64.8792 3.85965 64.6688 4.21053 64.6688 4.70175C64.6688 5.12281 64.8091 5.40351 65.0896 5.61404C65.3702 5.82456 65.8262 6 66.4224 6.14035L68.5618 6.63158C70.0699 6.94737 71.2273 7.47368 72.034 8.14035C72.8056 8.80702 73.2264 9.75439 73.2264 11.0175C73.2264 12.0351 72.9459 12.9123 72.4198 13.6491C71.8937 14.386 71.1572 14.9825 70.2102 15.4035C69.2633 15.8246 68.1409 16 66.8433 16C65.6508 16 64.5285 15.7895 63.5465 15.4035C62.5294 15.0175 61.7227 14.4211 61.0563 13.614C60.425 12.807 60.0392 11.7895 59.8989 10.5614H63.7218C63.827 11.2281 64.1778 11.7544 64.7389 12.1404C65.3001 12.5263 66.0366 12.7018 66.9485 12.7018C67.6499 12.7018 68.2111 12.5965 68.5618 12.3509C68.9476 12.1053 69.123 11.7895 69.123 11.3684C69.123 10.7018 68.5969 10.2807 67.5096 10.0702L64.9844 9.50877C63.4763 9.19298 62.354 8.63158 61.6175 7.92982C60.881 7.19298 60.5302 6.21053 60.5302 5.01754C60.5302 4 60.7757 3.12281 61.3018 2.35088C61.8279 1.57895 62.5294 1.01754 63.4412 0.596491C64.3531 0.175439 65.4053 0 66.6328 0C67.5798 0 68.5267 0.140351 69.4737 0.45614Z" fill="#222222"/>
<path d="M102.441 1.01756C103.423 1.4737 104.159 2.14036 104.685 2.98247C105.211 3.82458 105.492 4.80703 105.492 5.96493C105.492 7.15791 105.211 8.17545 104.65 9.05264C104.089 9.92984 103.318 10.5965 102.265 11.0877C101.248 11.579 100.021 11.7895 98.6529 11.7895H96.5836V15.6842H92.7607V0.350891H98.9685C100.301 0.350891 101.459 0.561417 102.441 1.01756ZM100.898 7.78949C101.389 7.33335 101.669 6.73686 101.669 5.96493C101.669 5.26317 101.424 4.73686 100.898 4.3158C100.407 3.89475 99.7051 3.71931 98.8633 3.71931H96.5836V8.45615H98.8633C99.7401 8.45615 100.407 8.24563 100.898 7.78949Z" fill="#222222"/>
<path d="M119.206 1.08773C120.434 1.78948 121.416 2.77194 122.152 3.96492C122.889 5.1579 123.239 6.52632 123.239 8.00001C123.239 9.47369 122.889 10.8421 122.152 12.0351C121.416 13.2281 120.469 14.2105 119.206 14.9123C117.979 15.614 116.576 15.9649 115.068 15.9649C113.559 15.9649 112.157 15.614 110.929 14.9123C109.701 14.2105 108.719 13.2281 108.018 12.0351C107.317 10.807 106.966 9.47369 106.966 8.00001C106.966 6.52632 107.317 5.1579 108.018 3.96492C108.719 2.73685 109.701 1.78948 110.929 1.08773C112.157 0.385972 113.559 0.0350952 115.068 0.0350952C116.576 0.0350952 117.943 0.385972 119.206 1.08773ZM117.242 11.8947C117.873 11.5088 118.399 10.9474 118.75 10.2807C119.136 9.57895 119.311 8.84211 119.311 8.07018C119.311 7.26316 119.136 6.52632 118.75 5.85966C118.364 5.1579 117.873 4.63159 117.242 4.24562C116.611 3.85966 115.874 3.64913 115.068 3.64913C114.261 3.64913 113.524 3.85966 112.893 4.24562C112.262 4.63159 111.736 5.19299 111.385 5.85966C110.999 6.56141 110.824 7.29825 110.824 8.07018C110.824 8.8772 110.999 9.61404 111.385 10.2807C111.771 10.9825 112.262 11.5088 112.893 11.8947C113.524 12.2807 114.261 12.4912 115.068 12.4912C115.874 12.4912 116.576 12.2807 117.242 11.8947Z" fill="#222222"/>
<path d="M138.567 15.7895L135.48 6.42107L132.394 15.7895H128.711L123.731 0.350891H127.764L130.64 9.92984L133.902 0.421067V0.350891H137.058L140.32 9.89475L143.161 0.350891H147.194L142.249 15.7895H138.567Z" fill="#222222"/>
<path d="M159.645 6.45615V9.71931H152.84V12.386H160.627V15.7193H149.018V0.350891H160.627V3.68422H152.84V6.49124H159.645V6.45615Z" fill="#222222"/>
<path d="M166.624 15.7193H162.801V0.350891H169.535C170.798 0.350891 171.92 0.561418 172.867 1.01756C173.814 1.43861 174.551 2.07019 175.077 2.87721C175.603 3.68422 175.883 4.63159 175.883 5.7544C175.883 6.80703 175.638 7.7544 175.112 8.59651C174.586 9.43861 173.884 10.0702 172.937 10.5263L176.9 15.7193H172.306L169.009 11.2632H166.624V15.7193ZM171.324 7.22809C171.815 6.84212 172.095 6.35089 172.095 5.71931C172.095 5.12282 171.85 4.63159 171.324 4.24563C170.833 3.85966 170.202 3.68422 169.43 3.68422H166.589V7.78949H169.43C170.202 7.82458 170.833 7.61405 171.324 7.22809Z" fill="#222222"/>
<path d="M87.8513 6.14038H77.7505V9.5088H87.8513V6.14038Z" fill="#F32735"/>
<path d="M84.4846 2.77191H81.1177V12.8772H84.4846V2.77191Z" fill="#F32735"/>
</svg>
