<svg width="18" height="20" viewBox="0 0 18 20" fill="none" xmlns="http://www.w3.org/2000/svg">
<path d="M15.3361 4.00894C14.2588 3.30651 13.4812 2.18262 13.2387 0.872464C13.1863 0.589395 13.1575 0.298072 13.1575 0H9.71906L9.71356 13.78C9.65575 15.3231 8.3857 16.5616 6.82874 16.5616C6.34483 16.5616 5.88918 16.4406 5.488 16.2295C4.56801 15.7454 3.93841 14.781 3.93841 13.6713C3.93841 12.0775 5.23508 10.7808 6.82874 10.7808C7.12624 10.7808 7.41162 10.8299 7.68157 10.9145V7.40424C7.4022 7.3662 7.11836 7.34242 6.82874 7.34242C3.339 7.34242 0.5 10.1816 0.5 13.6713C0.5 15.8124 1.56975 17.7072 3.20178 18.853C4.22977 19.5747 5.48018 20 6.82874 20C10.3185 20 13.1575 17.161 13.1575 13.6713V6.68367C14.5061 7.65161 16.1583 8.222 17.9412 8.222V4.7836C16.9808 4.7836 16.0863 4.49808 15.3361 4.00894Z" fill="black"/>
</svg>
